<svg xmlns:xlink="http://www.w3.org/1999/xlink" fill="none" width="30" xmlns="http://www.w3.org/2000/svg" style="-webkit-print-color-adjust:exact" id="screenshot-4e0fbfad-901b-80e7-8002-7c024bec0cde" version="1.1" viewBox="457 228 30 30" height="30">
    <g id="shape-4e0fbfad-901b-80e7-8002-7c024bec0cde" style="fill:#000000" width="16" height="16" class="bi bi-emoji-laughing" rx="0" ry="0">
      <g id="shape-4e0fbfad-901b-80e7-8002-7c024beccd80">
        <g class="fills" id="fills-4e0fbfad-901b-80e7-8002-7c024beccd80">
          <path rx="0" ry="0" style="fill:#00235B;fill-opacity:1" d="M472.000,256.125C464.751,256.125,458.875,250.249,458.875,243.000C458.875,235.751,464.751,229.875,472.000,229.875C479.249,229.875,485.125,235.751,485.125,243.000C485.125,250.249,479.249,256.125,472.000,256.125ZZM472.000,258.000C480.284,258.000,487.000,251.284,487.000,243.000C487.000,234.716,480.284,228.000,472.000,228.000C463.716,228.000,457.000,234.716,457.000,243.000C457.000,251.284,463.716,258.000,472.000,258.000ZZ">
          </path>
        </g>
      </g>
      <g id="shape-4e0fbfad-901b-80e7-8002-7c024bed6109">
        <g class="fills" id="fills-4e0fbfad-901b-80e7-8002-7c024bed6109">
          <path rx="0" ry="0" style="fill:#00235B;fill-opacity:1" d="M480.121,245.813C480.456,246.393,480.456,247.107,480.121,247.688C478.446,250.589,475.350,252.376,472.000,252.375C468.651,252.376,465.555,250.589,463.881,247.688C463.546,247.108,463.546,246.393,463.881,245.813C464.215,245.233,464.834,244.876,465.503,244.875L478.497,244.875C479.167,244.875,479.786,245.232,480.121,245.813ZZM470.125,240.188C470.125,241.740,469.285,240.188,468.250,240.188C467.215,240.188,466.375,241.740,466.375,240.188C466.375,238.635,467.215,237.375,468.250,237.375C469.285,237.375,470.125,238.635,470.125,240.188ZZM477.625,240.188C477.625,241.740,476.785,240.188,475.750,240.188C474.715,240.188,473.875,241.740,473.875,240.188C473.875,238.635,474.715,237.375,475.750,237.375C476.785,237.375,477.625,238.635,477.625,240.188ZZ">
          </path>
        </g>
      </g>
    </g>
  </svg>