<svg version="1.1" xmlns="http://www.w3.org/2000/svg" viewBox="0 0 15300.000457763672 17167.465118462896" width="15300.000457763672" height="17167.465118462896">
  <!-- svg-source:excalidraw -->
  
  <defs>
    <style class="style-fonts">
      @font-face {
        font-family: "Virgil";
        src: url("https://excalidraw.com/Virgil.woff2");
      }
      @font-face {
        font-family: "Cascadia";
        src: url("https://excalidraw.com/Cascadia.woff2");
      }
    </style>
  </defs>
  <rect x="0" y="0" width="15300.000457763672" height="17167.465118462896" fill="#ffffff"></rect><g transform="translate(3582.804168701176 8099.715382948569) rotate(0 534.9287719726562 245.83333333333326)"><text x="534.9287719726562" y="0" font-family="Virgil, Segoe UI Emoji" font-size="393.33333333333303px" fill="#000000" text-anchor="middle" style="white-space: pre;" direction="ltr" dominant-baseline="text-before-edge">HTML</text></g><g transform="translate(5556.869293212895 8167.21548467383) rotate(0 365.796875 245.83333333333303)"><text x="365.796875" y="0" font-family="Virgil, Segoe UI Emoji" font-size="393.33333333333303px" fill="#000000" text-anchor="middle" style="white-space: pre;" direction="ltr" dominant-baseline="text-before-edge">CSS</text></g><g transform="translate(4347.105295817062 9687.243542115317) rotate(0 657.560791015625 137.81937582027263)"><text x="657.560791015625" y="0" font-family="Virgil, Segoe UI Emoji" font-size="220.51100131243606px" fill="#000000" text-anchor="middle" style="white-space: pre;" direction="ltr" dominant-baseline="text-before-edge">"JavaScript"</text></g><g stroke-linecap="round" transform="translate(3228.6668395996135 7452.382314100913) rotate(0 996.0001118977864 906.6666666666664)"><path d="M1061.63 2.28 C1102.33 -10.12, 1144.84 10.12, 1185.82 17.34 C1226.8 24.56, 1267.93 34.02, 1307.51 45.59 C1347.1 57.16, 1385.78 70.67, 1423.33 86.74 C1460.88 102.82, 1497.87 121.47, 1532.82 142.06 C1567.77 162.66, 1601.16 185.86, 1633.04 210.32 C1664.92 234.77, 1695.65 261.3, 1724.09 288.79 C1752.53 316.27, 1779.24 344.54, 1803.67 375.22 C1828.11 405.9, 1850.68 439.33, 1870.68 472.86 C1890.68 506.38, 1908.71 541.03, 1923.7 576.38 C1938.68 611.73, 1950.37 648.32, 1960.58 684.94 C1970.8 721.57, 1979.77 758.79, 1985 796.13 C1990.23 833.48, 1992.07 871.02, 1991.97 909 C1991.87 946.99, 1989.62 986.51, 1984.38 1024.04 C1979.15 1061.56, 1971.16 1097.7, 1960.56 1134.15 C1949.95 1170.6, 1936.4 1207.32, 1920.76 1242.71 C1905.12 1278.11, 1886.82 1313.33, 1866.73 1346.51 C1846.63 1379.69, 1824.58 1411.33, 1800.19 1441.77 C1775.8 1472.21, 1749 1501.49, 1720.4 1529.13 C1691.81 1556.78, 1660.75 1583.55, 1628.63 1607.66 C1596.51 1631.77, 1563.05 1653.85, 1527.68 1673.82 C1492.31 1693.78, 1454.16 1711.29, 1416.42 1727.46 C1378.68 1743.63, 1340.88 1758.99, 1301.25 1770.83 C1261.63 1782.68, 1219.76 1791.58, 1178.65 1798.53 C1137.55 1805.47, 1096.2 1810.25, 1054.64 1812.49 C1013.08 1814.74, 970.7 1814.64, 929.31 1811.98 C887.92 1809.33, 846.97 1803.88, 806.3 1796.55 C765.64 1789.21, 724.77 1779.85, 685.33 1767.98 C645.89 1756.11, 607.44 1741.52, 569.66 1725.32 C531.88 1709.11, 493.72 1691.2, 458.63 1670.76 C423.54 1650.32, 390.88 1626.87, 359.13 1602.66 C327.38 1578.45, 296.62 1553.13, 268.13 1525.47 C239.64 1497.81, 212.55 1467.47, 188.17 1436.69 C163.8 1405.91, 141.66 1373.88, 121.88 1340.81 C102.09 1307.74, 84.56 1273.51, 69.46 1238.28 C54.36 1203.04, 41.63 1166.23, 31.26 1129.42 C20.89 1092.61, 12.53 1054.95, 7.23 1017.41 C1.93 979.86, -0.62 942.18, -0.53 904.18 C-0.44 866.17, 2.33 827.02, 7.77 789.39 C13.21 751.75, 21.7 714.75, 32.11 678.35 C42.52 641.95, 54.88 606.08, 70.21 570.98 C85.54 535.87, 103.86 501.13, 124.08 467.72 C144.3 434.3, 166.75 401, 191.52 370.5 C216.29 339.99, 244.01 312.09, 272.72 284.67 C301.42 257.24, 331.67 229.99, 363.75 205.94 C395.82 181.89, 429.86 160.49, 465.15 140.37 C500.44 120.25, 537.7 101.45, 575.49 85.23 C613.28 69.01, 652.54 54.5, 691.89 43.05 C731.24 31.59, 770.83 23.28, 811.61 16.51 C852.39 9.73, 893.77 4.64, 936.58 2.42 C979.39 0.2, 1045.36 0.12, 1068.45 3.17 C1091.53 6.23, 1076.25 5.64, 1075.11 20.75 M1260.54 33.94 C1303.24 28.81, 1342.33 55.56, 1380.98 69.85 C1419.64 84.14, 1456.59 100.97, 1492.46 119.69 C1528.33 138.4, 1562.91 159.2, 1596.2 182.13 C1629.49 205.06, 1662.2 230.46, 1692.18 257.26 C1722.15 284.06, 1750.31 313.21, 1776.05 342.91 C1801.8 372.61, 1825 403.41, 1846.65 435.45 C1868.3 467.48, 1888.97 500.38, 1905.95 535.11 C1922.94 569.84, 1936.78 607.59, 1948.57 643.83 C1960.36 680.07, 1969.35 715.51, 1976.68 752.53 C1984.01 789.55, 1990.41 827.88, 1992.53 865.98 C1994.64 904.07, 1992.96 943.12, 1989.36 981.09 C1985.75 1019.05, 1979.74 1056.58, 1970.89 1093.77 C1962.05 1130.95, 1949.67 1168.38, 1936.27 1204.21 C1922.87 1240.05, 1908.81 1275.27, 1890.5 1308.77 C1872.19 1342.27, 1849.8 1373.91, 1826.39 1405.23 C1802.98 1436.54, 1777.32 1467.74, 1750.03 1496.65 C1722.75 1525.56, 1693.49 1553.24, 1662.69 1578.71 C1631.89 1604.19, 1599.33 1627.81, 1565.25 1649.5 C1531.16 1671.19, 1494.73 1691.07, 1458.17 1708.84 C1421.61 1726.6, 1384.79 1742.65, 1345.89 1756.1 C1306.99 1769.55, 1265.34 1781.04, 1224.77 1789.52 C1184.2 1798.01, 1143.78 1802.86, 1102.49 1807.01 C1061.2 1811.17, 1018.6 1815.21, 977.02 1814.46 C935.43 1813.71, 894.21 1807.94, 852.98 1802.52 C811.75 1797.09, 769.92 1791.96, 729.63 1781.92 C689.34 1771.88, 649.33 1757.04, 611.23 1742.28 C573.13 1727.52, 536.79 1712.1, 501.01 1693.36 C465.24 1674.63, 429.77 1652.98, 396.57 1629.89 C363.37 1606.79, 331.85 1581.27, 301.81 1554.8 C271.77 1528.33, 242.57 1500.54, 216.35 1471.06 C190.12 1441.58, 165.94 1410.15, 144.47 1377.93 C123 1345.71, 104.3 1312.03, 87.55 1277.74 C70.8 1243.44, 56.3 1208.45, 43.98 1172.15 C31.65 1135.85, 20.82 1097.75, 13.61 1059.94 C6.4 1022.13, 2.42 983.19, 0.72 945.28 C-0.97 907.37, -0.23 870.15, 3.42 832.49 C7.07 794.84, 14.11 756.46, 22.62 719.32 C31.13 682.19, 41.2 645.58, 54.5 609.7 C67.8 573.81, 83.76 537.98, 102.42 504.02 C121.08 470.05, 143.48 437.32, 166.46 405.9 C189.44 374.47, 213.42 344.27, 240.31 315.47 C267.19 286.68, 297.02 258.24, 327.75 233.13 C358.49 208.02, 390.56 186.2, 424.69 164.81 C458.83 143.43, 495.62 122.44, 532.55 104.8 C569.49 87.15, 607.57 72.33, 646.3 58.95 C685.03 45.57, 724.57 33.6, 764.92 24.51 C805.26 15.43, 847.01 8.67, 888.37 4.43 C929.73 0.19, 971.5 -1.62, 1013.11 -0.93 C1054.72 -0.24, 1096.38 2.81, 1138.03 8.57 C1179.68 14.33, 1243.29 26.88, 1262.99 33.62 C1282.69 40.36, 1260.97 34.48, 1256.23 49.02" stroke="#000000" stroke-width="4" fill="none"></path></g><g stroke-linecap="round" transform="translate(4857.99947102865 7510.382293755862) rotate(0 996.0001118977862 906.6666666666665)"><path d="M898.17 5.36 C935.62 -13.06, 980.78 0.22, 1022.51 1.08 C1064.25 1.93, 1107.27 4.9, 1148.57 10.47 C1189.86 16.04, 1230.42 24.17, 1270.28 34.49 C1310.15 44.81, 1349.43 57.42, 1387.74 72.39 C1426.05 87.36, 1464.13 104.9, 1500.15 124.29 C1536.17 143.68, 1571 165.58, 1603.86 188.71 C1636.73 211.85, 1667.79 236.66, 1697.34 263.12 C1726.89 289.59, 1755.55 317.54, 1781.17 347.48 C1806.79 377.43, 1829.95 410.26, 1851.06 442.78 C1872.16 475.31, 1890.93 508.13, 1907.81 542.63 C1924.68 577.12, 1940.36 613.26, 1952.31 649.76 C1964.26 686.26, 1973 724.09, 1979.53 761.62 C1986.06 799.15, 1990.21 837, 1991.49 874.93 C1992.77 912.87, 1990.85 951.48, 1987.23 989.22 C1983.61 1026.97, 1978.63 1064.72, 1969.78 1101.41 C1960.94 1138.1, 1948.41 1173.86, 1934.17 1209.36 C1919.92 1244.86, 1903.17 1280.48, 1884.31 1314.42 C1865.46 1348.36, 1844.26 1381.55, 1821.05 1413.01 C1797.85 1444.47, 1772.44 1474.65, 1745.07 1503.17 C1717.69 1531.68, 1687.74 1558.83, 1656.82 1584.09 C1625.9 1609.35, 1593.82 1633.19, 1559.55 1654.71 C1525.27 1676.24, 1488.22 1696.08, 1451.17 1713.25 C1414.12 1730.41, 1376.29 1744.67, 1337.25 1757.72 C1298.21 1770.77, 1257.5 1783.15, 1216.94 1791.54 C1176.38 1799.92, 1135.34 1804.29, 1093.9 1808.02 C1052.45 1811.75, 1009.99 1814.93, 968.27 1813.94 C926.55 1812.95, 884.5 1807.94, 843.57 1802.06 C802.65 1796.18, 762.5 1788.99, 722.7 1778.65 C682.9 1768.32, 643.03 1755.14, 604.77 1740.06 C566.52 1724.99, 529.23 1707.36, 493.17 1688.19 C457.11 1669.02, 421.58 1648.03, 388.4 1625.04 C355.22 1602.05, 323.5 1576.82, 294.07 1550.24 C264.64 1523.65, 237.29 1495.18, 211.83 1465.53 C186.37 1435.88, 162.77 1404.88, 141.3 1372.31 C119.84 1339.74, 99.85 1305.15, 83.06 1270.13 C66.26 1235.11, 52.2 1198.57, 40.52 1162.19 C28.85 1125.82, 19.49 1089.2, 12.99 1051.88 C6.49 1014.55, 3.03 976.14, 1.52 938.24 C0.01 900.34, 0.4 862.28, 3.95 824.5 C7.5 786.72, 13.76 748.55, 22.83 711.55 C31.91 674.56, 44.45 638.08, 58.4 602.5 C72.36 566.93, 88 531.97, 106.58 498.11 C125.16 464.24, 146.74 430.54, 169.91 399.33 C193.07 368.11, 218.16 339.14, 245.56 310.82 C272.97 282.51, 303.16 254.62, 334.33 229.45 C365.5 204.27, 398.42 181.24, 432.58 159.76 C466.74 138.28, 502.38 118.12, 539.29 100.56 C576.19 82.99, 614.9 67.46, 653.99 54.35 C693.08 41.25, 729.87 30.62, 773.81 21.93 C817.76 13.23, 889.84 2.49, 917.66 2.19 C945.49 1.89, 939.35 5.12, 940.76 20.13 M849.14 8.96 C885.95 -10.77, 933.88 1.83, 975.58 1.15 C1017.28 0.48, 1058.17 1.07, 1099.36 4.92 C1140.55 8.77, 1182.23 15.5, 1222.71 24.26 C1263.18 33.03, 1303.39 44.34, 1342.22 57.52 C1381.05 70.7, 1418.65 85.91, 1455.69 103.34 C1492.73 120.77, 1530.04 140.51, 1564.46 162.11 C1598.88 183.71, 1631.41 207.94, 1662.21 232.95 C1693.02 257.96, 1722.25 283.46, 1749.31 312.18 C1776.38 340.9, 1801.54 373.74, 1824.63 405.27 C1847.71 436.79, 1869.07 467.36, 1887.84 501.33 C1906.61 535.29, 1923.71 573.24, 1937.26 609.08 C1950.82 644.91, 1960.78 679.68, 1969.17 716.32 C1977.56 752.97, 1983.85 791.27, 1987.58 828.95 C1991.31 866.62, 1992.99 904.44, 1991.57 942.37 C1990.16 980.3, 1986.15 1018.87, 1979.09 1056.55 C1972.04 1094.23, 1961.41 1132.03, 1949.25 1168.44 C1937.08 1204.85, 1922.81 1240.64, 1906.1 1275.01 C1889.38 1309.39, 1870.6 1342.13, 1848.94 1374.69 C1827.27 1407.24, 1802.06 1440.66, 1776.11 1470.34 C1750.16 1500.03, 1722.75 1526.56, 1693.25 1552.8 C1663.74 1579.04, 1632.34 1604.84, 1599.09 1627.77 C1565.84 1650.7, 1529.85 1671.15, 1493.74 1690.36 C1457.64 1709.56, 1420.43 1728.24, 1382.45 1743.01 C1344.47 1757.79, 1305.63 1768.95, 1265.86 1779.01 C1226.09 1789.08, 1185.19 1797.67, 1143.81 1803.42 C1102.43 1809.18, 1059.28 1812.8, 1017.59 1813.54 C975.91 1814.29, 935.28 1811.72, 893.69 1807.91 C852.11 1804.1, 808.54 1799.23, 768.1 1790.69 C727.66 1782.16, 689.68 1770.02, 651.04 1756.7 C612.39 1743.39, 573.29 1728.11, 536.24 1710.81 C499.18 1693.5, 463.25 1674.3, 428.72 1652.88 C394.19 1631.45, 359.99 1607.62, 329.06 1582.24 C298.13 1556.87, 270.24 1529.23, 243.13 1500.62 C216.02 1472, 189.3 1442.43, 166.4 1410.55 C143.5 1378.67, 124.36 1343.52, 105.73 1309.34 C87.09 1275.16, 68.73 1240.77, 54.59 1205.48 C40.45 1170.18, 29.61 1134.35, 20.89 1097.57 C12.16 1060.78, 5.43 1022.74, 2.25 984.76 C-0.93 946.78, 0.1 907.67, 1.79 869.69 C3.49 831.71, 5.78 794.04, 12.42 756.86 C19.06 719.69, 29.24 682.84, 41.64 646.63 C54.04 610.41, 70.09 574.59, 86.82 539.56 C103.56 504.52, 120.62 468.75, 142.05 436.41 C163.48 404.08, 189.11 375.14, 215.39 345.55 C241.67 315.95, 270.11 285.41, 299.73 258.84 C329.34 232.26, 360.29 208.9, 393.07 186.11 C425.84 163.32, 460.23 141.15, 496.36 122.1 C532.48 103.06, 571.25 86.75, 609.82 71.84 C648.38 56.93, 687.73 42.86, 727.74 32.63 C767.74 22.41, 829.23 11.49, 849.83 10.48 C870.42 9.48, 848.82 11.74, 851.33 26.61" stroke="#000000" stroke-width="4" fill="none"></path></g><g stroke-linecap="round" transform="translate(4004.666137695316 8744.382334445965) rotate(0 996.0001118977864 906.6666666666667)"><path d="M868.2 7.15 C905.21 -12.18, 951.24 -0.01, 993.07 0.05 C1034.9 0.12, 1077.75 2.97, 1119.19 7.55 C1160.63 12.12, 1201.6 18.41, 1241.72 27.49 C1281.84 36.57, 1321.24 48.01, 1359.92 62.01 C1398.6 76.01, 1437.18 93.24, 1473.79 111.5 C1510.39 129.75, 1545.81 149.3, 1579.56 171.56 C1613.32 193.81, 1645.99 219.12, 1676.31 245.01 C1706.63 270.9, 1734.95 297.99, 1761.47 326.88 C1787.99 355.77, 1812.83 386.53, 1835.42 418.35 C1858.01 450.17, 1879.23 483.39, 1897.03 517.79 C1914.82 552.18, 1929.46 588.55, 1942.19 624.72 C1954.91 660.89, 1965.38 697.62, 1973.39 734.82 C1981.39 772.02, 1987.29 810.22, 1990.23 847.92 C1993.16 885.62, 1993.5 923.29, 1990.98 961 C1988.46 998.7, 1982.8 1037.05, 1975.11 1074.16 C1967.42 1111.27, 1957.75 1147.71, 1944.83 1183.67 C1931.91 1219.63, 1915.46 1255.46, 1897.6 1289.92 C1879.73 1324.38, 1859.82 1358.44, 1837.64 1390.43 C1815.46 1422.42, 1790.69 1452.43, 1764.51 1481.86 C1738.33 1511.28, 1710.74 1540.84, 1680.57 1566.97 C1650.4 1593.11, 1617.29 1616.34, 1583.5 1638.67 C1549.71 1660.99, 1514.18 1682.57, 1477.84 1700.93 C1441.5 1719.29, 1403.92 1735.07, 1365.46 1748.84 C1327.01 1762.6, 1287.54 1773.97, 1247.11 1783.54 C1206.68 1793.11, 1164.44 1801.3, 1122.87 1806.25 C1081.3 1811.19, 1039.19 1813.3, 997.69 1813.2 C956.19 1813.09, 915.06 1810.37, 873.87 1805.63 C832.69 1800.89, 790.84 1794.08, 750.59 1784.77 C710.33 1775.46, 671.03 1763.45, 632.36 1749.78 C593.69 1736.11, 555.3 1720.94, 518.57 1702.73 C481.84 1684.53, 445.7 1662.68, 411.97 1640.56 C378.24 1618.45, 346.47 1595.85, 316.17 1570.03 C285.87 1544.22, 256.88 1514.89, 230.15 1485.69 C203.41 1456.48, 178.08 1426.52, 155.76 1394.79 C133.45 1363.05, 113.93 1329.62, 96.26 1295.28 C78.6 1260.93, 62.85 1224.89, 49.79 1188.73 C36.72 1152.56, 25.68 1115.46, 17.89 1078.27 C10.11 1041.07, 5.84 1003.14, 3.08 965.54 C0.31 927.93, -1.1 890.39, 1.3 852.64 C3.7 814.89, 9.69 776.22, 17.49 739.04 C25.3 701.86, 35.25 665.52, 48.12 629.56 C60.99 593.6, 76.99 557.63, 94.69 523.29 C112.38 488.95, 132.22 455.61, 154.3 423.51 C176.38 391.42, 200.69 360.22, 227.19 330.7 C253.68 301.18, 283.19 272.48, 313.27 246.39 C343.35 220.31, 374.34 196.31, 407.69 174.19 C441.04 152.08, 476.89 131.82, 513.38 113.69 C549.86 95.57, 587.91 79.57, 626.6 65.43 C665.28 51.28, 704.14 38.67, 745.5 28.83 C786.87 18.99, 851.63 7.27, 874.79 6.38 C897.95 5.49, 882.33 8.59, 884.46 23.48 M847.13 9.76 C883.6 -10.41, 930.87 1.17, 972.48 0.33 C1014.09 -0.51, 1055.28 0.73, 1096.8 4.73 C1138.31 8.73, 1181.2 15.99, 1221.56 24.34 C1261.93 32.69, 1299.91 42.15, 1338.99 54.84 C1378.07 67.53, 1418.72 82.97, 1456.03 100.46 C1493.34 117.96, 1528.89 138.02, 1562.85 159.81 C1596.81 181.59, 1629.12 205.59, 1659.79 231.17 C1690.47 256.76, 1719.55 284.88, 1746.89 313.34 C1774.23 341.79, 1800.74 370.44, 1823.83 401.89 C1846.92 433.34, 1866.62 467.86, 1885.41 502.04 C1904.19 536.21, 1922.48 571.19, 1936.52 606.94 C1950.57 642.69, 1960.94 679.71, 1969.66 716.52 C1978.37 753.33, 1985.42 790.26, 1988.8 827.79 C1992.18 865.31, 1991.58 903.57, 1989.95 941.66 C1988.33 979.74, 1985.81 1019.08, 1979.07 1056.29 C1972.32 1093.5, 1961.67 1128.77, 1949.48 1164.91 C1937.29 1201.05, 1922.35 1238.48, 1905.92 1273.11 C1889.48 1307.75, 1872.09 1340.23, 1850.87 1372.73 C1829.65 1405.22, 1804.66 1438.06, 1778.6 1468.09 C1752.55 1498.13, 1724.27 1526.34, 1694.54 1552.93 C1664.82 1579.52, 1633.03 1604.61, 1600.24 1627.63 C1567.46 1650.65, 1533.88 1672.34, 1497.81 1691.06 C1461.74 1709.77, 1422.5 1725.34, 1383.83 1739.91 C1345.16 1754.49, 1305.76 1767.99, 1265.78 1778.52 C1225.81 1789.05, 1185.12 1797.59, 1144 1803.12 C1102.88 1808.64, 1060.6 1810.67, 1019.05 1811.69 C977.5 1812.72, 936.16 1812.77, 894.71 1809.28 C853.25 1805.79, 810.64 1799.27, 770.32 1790.74 C729.99 1782.21, 691.67 1771.17, 652.77 1758.09 C613.86 1745.02, 574.12 1729.88, 536.88 1712.27 C499.65 1694.66, 463.48 1674.01, 429.37 1652.42 C395.25 1630.82, 363.33 1607.68, 332.2 1582.7 C301.08 1557.73, 269.73 1531.26, 242.61 1502.57 C215.48 1473.87, 192.18 1442.21, 169.44 1410.51 C146.69 1378.82, 125.01 1346.29, 106.13 1312.4 C87.25 1278.51, 69.85 1242.88, 56.15 1207.18 C42.44 1171.49, 32.55 1135.25, 23.89 1098.23 C15.22 1061.2, 8.12 1022.82, 4.15 985.04 C0.18 947.26, -1.33 909.41, 0.07 871.56 C1.48 833.72, 5.87 795.07, 12.58 757.94 C19.29 720.81, 28.4 684.79, 40.33 648.79 C52.26 612.78, 67.37 576.77, 84.17 541.93 C100.97 507.09, 119.35 472.25, 141.13 439.72 C162.9 407.2, 188.76 376.69, 214.81 346.79 C240.87 316.88, 267.87 287.13, 297.45 260.29 C327.03 233.44, 359.27 208.4, 392.3 185.71 C425.34 163.02, 459.83 142.93, 495.68 124.15 C531.53 105.37, 569.22 87.99, 607.39 73.05 C645.57 58.11, 684.8 45.01, 724.73 34.53 C764.65 24.04, 825.97 11.23, 846.95 10.14 C867.94 9.04, 848.2 13.07, 850.65 27.97" stroke="#000000" stroke-width="4" fill="none"></path></g><g transform="translate(4762.408899943038 9176.549285943362) rotate(0 244.25791931152355 245.83333333333303)"><text x="244.25791931152344" y="0" font-family="Virgil, Segoe UI Emoji" font-size="393.33333333333303px" fill="#000000" text-anchor="middle" style="white-space: pre;" direction="ltr" dominant-baseline="text-before-edge">JS</text></g><g stroke-linecap="round"><g transform="translate(5081.999664306645 7027.715718641929) rotate(0 -30.666707356770985 891.9999949137368)"><path d="M0 0.88 C-10.17 298.31, -50.45 1486.95, -60.54 1784.3 M-1.46 0.29 C-11.77 297.37, -51.16 1485.19, -61.08 1782.34" stroke="#000000" stroke-width="4" fill="none"></path></g><g transform="translate(5081.999664306645 7027.715718641929) rotate(0 -30.666707356770985 891.9999949137368)"><path d="M-60.4 1783.28 L-65.41 1767.5 L-53.23 1769.93 L-60.48 1781.07" stroke="none" stroke-width="0" fill="#000000" fill-rule="evenodd"></path><path d="M-59.98 1783.33 C-62.67 1778.57, -63.78 1773.08, -68.12 1769.71 M-61.1 1782.04 C-63.11 1779.33, -63.31 1777.01, -67.44 1768.08 M-66.64 1768.96 C-63.66 1769.74, -58.81 1769.83, -54.34 1768.05 M-67.18 1769.17 C-62.81 1769.01, -58.68 1769.25, -54.61 1768.36 M-55.36 1768.33 C-56.39 1773.13, -58.48 1776.26, -61.39 1783.59 M-54.08 1769.61 C-56.83 1773.46, -58.91 1779.37, -60.73 1781.81 M-61.08 1782.34 C-61.08 1782.34, -61.08 1782.34, -61.08 1782.34 M-61.08 1782.34 C-61.08 1782.34, -61.08 1782.34, -61.08 1782.34" stroke="#000000" stroke-width="4" fill="none"></path></g></g><mask></mask><g transform="translate(4097.483673095709 6080.867255125722) rotate(0 1093.85009765625 230.38132736588835)"><text x="1093.85009765625" y="0" font-family="Virgil, Segoe UI Emoji" font-size="368.61012378542137px" fill="#000000" text-anchor="middle" style="white-space: pre;" direction="ltr" dominant-baseline="text-before-edge">FRONT-END</text></g><g transform="translate(4658.833461832803 6552.382288669599) rotate(0 454.2384033203125 84.4999440511067)"><text x="454.2384033203125" y="0" font-family="Virgil, Segoe UI Emoji" font-size="135.19991048177076px" fill="#000000" text-anchor="middle" style="white-space: pre;" direction="ltr" dominant-baseline="text-before-edge">WEB ACTUAL</text></g><g stroke-linecap="round" transform="translate(3079.3330383300827 7231.049001112633) rotate(0 1963.9999389648428 1706.3333129882806)"><path d="M32 0 M32 0 C1474.52 7.79, 2916.86 6.33, 3896 0 M32 0 C1338.4 1.02, 2644.08 1.43, 3896 0 M3896 0 C3915.51 -0.76, 3927.29 8.82, 3928 32 M3896 0 C3917.53 0.34, 3925.75 11.15, 3928 32 M3928 32 C3935.55 1280.83, 3936.12 2528.16, 3928 3380.67 M3928 32 C3940.2 777.54, 3939.75 1522.32, 3928 3380.67 M3928 3380.67 C3929.06 3402.21, 3918.73 3410.84, 3896 3412.67 M3928 3380.67 C3929.15 3400.75, 3915.16 3414.09, 3896 3412.67 M3896 3412.67 C2426.16 3403.64, 954.95 3404.14, 32 3412.67 M3896 3412.67 C3007.71 3427.77, 2118.99 3427.91, 32 3412.67 M32 3412.67 C12.01 3414.58, -1.9 3402.21, 0 3380.67 M32 3412.67 C11.87 3413.15, -0.15 3404.28, 0 3380.67 M0 3380.67 C-11.78 2337.24, -10.59 1292.94, 0 32 M0 3380.67 C-2.92 2068.14, -2.73 756.13, 0 32 M0 32 C-1.34 12.24, 9.42 -1.91, 32 0 M0 32 C0.22 10.05, 11.32 0.37, 32 0" stroke="#000000" stroke-width="4" fill="none"></path></g><g stroke-linecap="round"><g transform="translate(4971.301824297978 9997.71597295508) rotate(0 1320.3279148731788 1033.3077442955282)"><path d="M1.01 -0.07 C440.91 344.19, 2200.54 1721.73, 2640.58 2066.38 M0.08 -1.16 C439.7 343.22, 2199.44 1723.23, 2639.55 2067.77" stroke="#000000" stroke-width="4" fill="none"></path></g><g transform="translate(4971.301824297978 9997.71597295508) rotate(0 1320.3279148731788 1033.3077442955282)"><path d="M2641.18 2067.92 L2625.98 2064.62 L2632.62 2055.16 L2641.2 2067.86" stroke="none" stroke-width="0" fill="#000000" fill-rule="evenodd"></path><path d="M2639.46 2067.59 C2633.36 2067.18, 2629.34 2065.2, 2623.83 2065.71 M2639.15 2067.07 C2634.1 2066.7, 2630.05 2065.12, 2625.16 2064.16 M2624.89 2063.25 C2626.91 2060.34, 2629.5 2057.54, 2631.79 2054.61 M2625.33 2063.77 C2627.12 2061.34, 2629.26 2059.34, 2632.62 2054.83 M2632.43 2055.32 C2635.15 2057.05, 2637.39 2061.88, 2640.33 2066.45 M2633.43 2054.71 C2634.87 2057.62, 2637.07 2061.78, 2640.29 2068.21 M2639.55 2067.77 C2639.55 2067.77, 2639.55 2067.77, 2639.55 2067.77 M2639.55 2067.77 C2639.55 2067.77, 2639.55 2067.77, 2639.55 2067.77" stroke="#000000" stroke-width="4" fill="none"></path></g></g><mask></mask><g transform="translate(5812.797231038415 12185.882578586588) rotate(0 2059.869140625 245.83333333333303)"><text x="2059.869140625" y="0" font-family="Virgil, Segoe UI Emoji" font-size="393.33333333333303px" fill="#000000" text-anchor="middle" style="white-space: pre;" direction="ltr" dominant-baseline="text-before-edge">Librerias y framework</text></g><g transform="translate(8228.09976196289 6019.001007080078) rotate(0 1191.900390625 230.38132736588835)"><text x="1191.900390625" y="0" font-family="Virgil, Segoe UI Emoji" font-size="368.61012378542137px" fill="#000000" text-anchor="middle" style="white-space: pre;" direction="ltr" dominant-baseline="text-before-edge">BACKEN-END</text></g><g stroke-linecap="round"><g transform="translate(5070.0001525878915 6998.382349704755) rotate(0 -1746.0000610351562 34.000091552734375)"><path d="M0.71 -0.71 C-581.59 10.59, -2910.87 57.69, -3492.82 69.02 M-0.38 1.53 C-582.38 13.02, -2908.73 56.32, -3490.54 67.43" stroke="#000000" stroke-width="4" fill="none"></path></g><g transform="translate(5070.0001525878915 6998.382349704755) rotate(0 -1746.0000610351562 34.000091552734375)"><path d="M-3491.11 66.71 L-3478.69 61.39 L-3478.45 73.73 L-3491.13 67.98" stroke="none" stroke-width="0" fill="#000000" fill-rule="evenodd"></path><path d="M-3491.44 66.4 C-3484.24 66.11, -3481.34 62.73, -3476.3 62.09 M-3490.21 67.29 C-3487.16 65.86, -3483.68 63.62, -3477.27 60.89 M-3477.89 60.52 C-3476.62 63.97, -3475.95 65.55, -3478.08 74.45 M-3476.72 61.4 C-3476.98 65.6, -3476.16 70.56, -3476.82 73.37 M-3476 74.42 C-3481.72 70.26, -3487.4 68.27, -3491.56 66.81 M-3476.19 73.95 C-3480.66 71.92, -3485.54 69.94, -3490.51 68.02 M-3490.54 67.43 C-3490.54 67.43, -3490.54 67.43, -3490.54 67.43 M-3490.54 67.43 C-3490.54 67.43, -3490.54 67.43, -3490.54 67.43" stroke="#000000" stroke-width="4" fill="none"></path></g></g><mask></mask><g stroke-linecap="round"><g transform="translate(1589.9998474121103 7082.382364963544) rotate(0 -190 161.99996948242188)"><path d="M0.95 -0.34 C-62.39 53.62, -317.81 270.43, -381.19 324.57 M-0.02 -1.57 C-62.9 51.98, -315.82 268.75, -379.1 322.74" stroke="#000000" stroke-width="4" fill="none"></path></g><g transform="translate(1589.9998474121103 7082.382364963544) rotate(0 -190 161.99996948242188)"><path d="M-380.09 320.89 L-373.66 310.02 L-366.39 318.27 L-378.27 324.44" stroke="none" stroke-width="0" fill="#000000" fill-rule="evenodd"></path><path d="M-379.53 321.26 C-377.23 320.82, -376.07 315.87, -372.23 309.74 M-378.95 323.12 C-377.78 319.59, -375.14 315.04, -372.33 309.4 M-373.16 309.7 C-369.57 310.74, -367.68 314.15, -365.12 319.05 M-372.75 308.71 C-370.35 313.05, -366.87 316.37, -364.77 319.35 M-364.96 319.47 C-369.98 318.74, -373.82 322.9, -378.87 323.34 M-364.33 318.78 C-367.61 319.34, -370.89 320.71, -378.72 322.58 M-379.1 322.74 C-379.1 322.74, -379.1 322.74, -379.1 322.74 M-379.1 322.74 C-379.1 322.74, -379.1 322.74, -379.1 322.74" stroke="#000000" stroke-width="4" fill="none"></path></g></g><mask></mask><g stroke-linecap="round" transform="translate(145.9997558593759 7394.382334445966) rotate(0 1285.999984741211 1446.0000610351562)"><path d="M32 0 M32 0 C934.69 -2.28, 1836.17 -0.95, 2540 0 M32 0 C891.67 -1.72, 1751.8 -1.47, 2540 0 M2540 0 C2560.9 0.27, 2570.65 11.57, 2572 32 M2540 0 C2560.04 0.78, 2570.04 11.52, 2572 32 M2572 32 C2575.96 850.66, 2575.89 1670.91, 2572 2860 M2572 32 C2577.24 1108.73, 2577.23 2185.25, 2572 2860 M2572 2860 C2571.61 2880.34, 2559.48 2891.23, 2540 2892 M2572 2860 C2573.07 2879.33, 2560.81 2892.95, 2540 2892 M2540 2892 C1575.24 2888.34, 610.92 2888.06, 32 2892 M2540 2892 C1703.46 2884, 866.97 2883.69, 32 2892 M32 2892 C11.28 2893.51, -1 2881.96, 0 2860 M32 2892 C12.59 2892.4, 0.18 2883.07, 0 2860 M0 2860 C-4.75 2093.08, -4.58 1325.31, 0 32 M0 2860 C6.28 1916.13, 6.53 972.04, 0 32 M0 32 C-0.07 11.68, 11.47 -1.52, 32 0 M0 32 C-0.34 11.38, 11.35 -1.18, 32 0" stroke="#000000" stroke-width="4" fill="none"></path></g><g transform="translate(443.2375183105478 7660.548665419274) rotate(0 945.761962890625 245.83333333333326)"><text x="945.761962890625" y="0" font-family="Virgil, Segoe UI Emoji" font-size="393.33333333333303px" fill="#000000" text-anchor="middle" style="white-space: pre;" direction="ltr" dominant-baseline="text-before-edge">ANDROID</text></g><g transform="translate(990.4657287597665 8376.549184218102) rotate(0 369.53350830078125 245.83333333333326)"><text x="369.53350830078125" y="0" font-family="Virgil, Segoe UI Emoji" font-size="393.33333333333303px" fill="#000000" text-anchor="middle" style="white-space: pre;" direction="ltr" dominant-baseline="text-before-edge">IOS</text></g><g transform="translate(6134.526275634766 3868.0007934570312) rotate(0 1436.4730224609375 230.3813273658884)"><text x="1436.4730224609375" y="0" font-family="Virgil, Segoe UI Emoji" font-size="368.61012378542137px" fill="#000000" text-anchor="middle" style="white-space: pre;" direction="ltr" dominant-baseline="text-before-edge">PROGRAMADOR</text></g><g stroke-linecap="round"><g transform="translate(7509.000396728516 4340.38178512956) rotate(0 -1036.0003662109375 780)"><path d="M0.02 0.83 C-345.46 261.01, -1726.73 1300.5, -2072.08 1560.28 M-1.43 0.22 C-347.15 260.08, -1727.82 1298.24, -2073.08 1558.3" stroke="#000000" stroke-width="4" fill="none"></path></g><g transform="translate(7509.000396728516 4340.38178512956) rotate(0 -1036.0003662109375 780)"><path d="M-2073.76 1560.09 L-2067.62 1544.57 L-2059.55 1554.85 L-2072.3 1558.24" stroke="none" stroke-width="0" fill="#000000" fill-rule="evenodd"></path><path d="M-2072.04 1558.19 C-2070.06 1553.28, -2068.43 1548.45, -2066.81 1543.67 M-2072.44 1557.93 C-2071.26 1554.58, -2068.75 1551.09, -2065.28 1545.68 M-2067.23 1544.85 C-2062.94 1548.07, -2061.12 1550.28, -2059.16 1554.39 M-2065.97 1544.91 C-2064.28 1547.72, -2062.43 1549.78, -2058.97 1555.51 M-2059.81 1555.72 C-2063.88 1555.94, -2067.23 1556.02, -2074.15 1557.79 M-2058.84 1555.19 C-2062.43 1556.57, -2068.17 1556.55, -2073.23 1558.15 M-2073.08 1558.3 C-2073.08 1558.3, -2073.08 1558.3, -2073.08 1558.3 M-2073.08 1558.3 C-2073.08 1558.3, -2073.08 1558.3, -2073.08 1558.3" stroke="#000000" stroke-width="4" fill="none"></path></g></g><mask></mask><g stroke-linecap="round"><g transform="translate(7557.000274658203 4316.381846164716) rotate(0 924.000244140625 703.9999389648438)"><path d="M-0.2 0.47 C307.84 235.26, 1539.79 1173.31, 1847.97 1408.08 M-1.77 -0.33 C306.14 234.73, 1538.61 1175.05, 1847 1409.66" stroke="#000000" stroke-width="4" fill="none"></path></g><g transform="translate(7557.000274658203 4316.381846164716) rotate(0 924.000244140625 703.9999389648438)"><path d="M1846.77 1410.79 L1832.59 1406.25 L1839.16 1396.28 L1847.24 1411.65" stroke="none" stroke-width="0" fill="#000000" fill-rule="evenodd"></path><path d="M1847.59 1409.61 C1843.08 1409.86, 1840.26 1408.37, 1831.23 1405.86 M1847.32 1409.44 C1842.07 1408.47, 1838.06 1408.17, 1832.38 1407.16 M1833.37 1406.14 C1834.52 1402.7, 1836.46 1400.01, 1839.16 1396.49 M1832.06 1406.65 C1834.99 1402.71, 1838.03 1399.64, 1839.8 1396.43 M1840.82 1395.33 C1842.38 1399.87, 1844.19 1403.58, 1845.82 1409.73 M1839.66 1396.47 C1843.56 1401.35, 1845.66 1406.68, 1847.66 1409.84 M1847 1409.66 C1847 1409.66, 1847 1409.66, 1847 1409.66 M1847 1409.66 C1847 1409.66, 1847 1409.66, 1847 1409.66" stroke="#000000" stroke-width="4" fill="none"></path></g></g><mask></mask><g stroke-linecap="round" transform="translate(11990.99967956543 7026.382151340497) rotate(0 1285.999984741211 1446.0000610351562)"><path d="M32 0 M32 0 C654.23 1.64, 1275.86 0.64, 2540 0 M32 0 C953.13 -9.28, 1874.29 -9.61, 2540 0 M2540 0 C2561.99 0.14, 2570.15 11.47, 2572 32 M2540 0 C2563.03 -0.77, 2572.19 8.38, 2572 32 M2572 32 C2579.54 695.01, 2579.89 1357.28, 2572 2860 M2572 32 C2572.26 712.89, 2572.19 1393.94, 2572 2860 M2572 2860 C2573.96 2879.35, 2560.41 2890.65, 2540 2892 M2572 2860 C2573.34 2880.85, 2559.96 2890.17, 2540 2892 M2540 2892 C1881.73 2899.67, 1224.08 2899.97, 32 2892 M2540 2892 C1784.4 2886.49, 1028.67 2885.75, 32 2892 M32 2892 C11.63 2892.12, 1.52 2880.64, 0 2860 M32 2892 C11.57 2892.1, -1.19 2881.12, 0 2860 M0 2860 C7.09 1920.84, 6.78 983.32, 0 32 M0 2860 C-5.21 1875.23, -5.33 890.68, 0 32 M0 32 C-0.23 11.12, 11.85 -1.67, 32 0 M0 32 C2.11 11.53, 8.52 -0.82, 32 0" stroke="#000000" stroke-width="4" fill="none"></path></g><g transform="translate(12918.624786376953 7262.548329725914) rotate(0 296.3741455078125 245.83333333333314)"><text x="296.3741455078125" y="0" font-family="Virgil, Segoe UI Emoji" font-size="393.33333333333303px" fill="#000000" text-anchor="middle" style="white-space: pre;" direction="ltr" dominant-baseline="text-before-edge">BD</text></g><g transform="translate(12304.111724853516 7878.562165168663) rotate(0 958.8876953125 137.81937582027263)"><text x="958.8876953125" y="0" font-family="Virgil, Segoe UI Emoji" font-size="220.51100131243606px" fill="#000000" text-anchor="middle" style="white-space: pre;" direction="ltr" dominant-baseline="text-before-edge">"Bases de datos"</text></g><g stroke-linecap="round" transform="translate(7540.999298095703 7048.381663059247) rotate(0 1988.00048828125 1816.0000610351562)"><path d="M32 0 M32 0 C843.55 -5.43, 1653.83 -4.44, 3944 0 M32 0 C1342.18 7.34, 2652.75 7.19, 3944 0 M3944 0 C3965.65 1.32, 3974.2 9.25, 3976 32 M3944 0 C3967.42 -1.97, 3975.67 11.58, 3976 32 M3976 32 C3989.37 1341.17, 3989.58 2651.03, 3976 3600 M3976 32 C3982.33 1068.32, 3982.18 2105.04, 3976 3600 M3976 3600 C3976.41 3622.32, 3965.28 3633.9, 3944 3632 M3976 3600 C3977.42 3623.53, 3966.52 3633.46, 3944 3632 M3944 3632 C3100.51 3633.76, 2257.66 3633.11, 32 3632 M3944 3632 C2389.04 3642.98, 833.94 3642.92, 32 3632 M32 3632 C10.08 3631.1, 0.89 3622.39, 0 3600 M32 3632 C11.38 3630.06, 0.02 3623.15, 0 3600 M0 3600 C11.77 2884.89, 11.23 2170.89, 0 32 M0 3600 C6.79 2804.56, 6.56 2009.41, 0 32 M0 32 C-0.59 11.5, 9.18 -0.84, 32 0 M0 32 C-0.36 9.22, 10 1.47, 32 0" stroke="#000000" stroke-width="4" fill="none"></path></g><g transform="translate(7936.377593994141 7238.548085585289) rotate(0 1602.622802734375 737.4999999999995)"><text x="1602.622802734375" y="0" font-family="Virgil, Segoe UI Emoji" font-size="393.33333333333303px" fill="#000000" text-anchor="middle" style="white-space: pre;" direction="ltr" dominant-baseline="text-before-edge">LENGUAJES </text><text x="1602.622802734375" y="491.6666666666663" font-family="Virgil, Segoe UI Emoji" font-size="393.33333333333303px" fill="#000000" text-anchor="middle" style="white-space: pre;" direction="ltr" dominant-baseline="text-before-edge">DE </text><text x="1602.622802734375" y="983.3333333333326" font-family="Virgil, Segoe UI Emoji" font-size="393.33333333333303px" fill="#000000" text-anchor="middle" style="white-space: pre;" direction="ltr" dominant-baseline="text-before-edge">PROGRAMACIÓN</text></g><g transform="translate(7771.675445556641 9058.562470344443) rotate(0 1031.3251953125 137.81937582027263)"><text x="1031.3251953125" y="0" font-family="Virgil, Segoe UI Emoji" font-size="220.51100131243606px" fill="#000000" text-anchor="middle" style="white-space: pre;" direction="ltr" dominant-baseline="text-before-edge">"JavaScript (node)"</text></g><g transform="translate(8267.796279907227 9566.562653449913) rotate(0 231.20472717285156 137.8193758202724)"><text x="231.20472717285156" y="0" font-family="Virgil, Segoe UI Emoji" font-size="220.51100131243606px" fill="#000000" text-anchor="middle" style="white-space: pre;" direction="ltr" dominant-baseline="text-before-edge">"C#"</text></g><g transform="translate(10334.028045654297 9026.56204309835) rotate(0 346.97247314453125 137.81937582027263)"><text x="346.97247314453125" y="0" font-family="Virgil, Segoe UI Emoji" font-size="220.51100131243606px" fill="#000000" text-anchor="middle" style="white-space: pre;" direction="ltr" dominant-baseline="text-before-edge">"Java"</text></g><g transform="translate(9586.754821777344 9810.562287238976) rotate(0 426.2458190917969 137.8193758202724)"><text x="426.2458190917969" y="0" font-family="Virgil, Segoe UI Emoji" font-size="220.51100131243606px" fill="#000000" text-anchor="middle" style="white-space: pre;" direction="ltr" dominant-baseline="text-before-edge">"Python"</text></g><g transform="translate(8852.668426513672 10239.5625313796) rotate(0 143.33148193359375 137.8193758202724)"><text x="143.33148193359375" y="0" font-family="Virgil, Segoe UI Emoji" font-size="220.51100131243606px" fill="#000000" text-anchor="middle" style="white-space: pre;" direction="ltr" dominant-baseline="text-before-edge">"C"</text></g><g transform="translate(12335.864044189453 8551.56219568624) rotate(0 283.13482666015625 137.81937582027263)"><text x="283.13482666015625" y="0" font-family="Virgil, Segoe UI Emoji" font-size="220.51100131243606px" fill="#000000" text-anchor="middle" style="white-space: pre;" direction="ltr" dominant-baseline="text-before-edge">"SQL"</text></g><g transform="translate(13367.464324951172 8535.562287238976) rotate(0 460.53509521484375 137.81937582027263)"><text x="460.53509521484375" y="0" font-family="Virgil, Segoe UI Emoji" font-size="220.51100131243606px" fill="#000000" text-anchor="middle" style="white-space: pre;" direction="ltr" dominant-baseline="text-before-edge">"No-SQL"</text></g><g stroke-linecap="round" transform="translate(7417.999725341797 5808.381968235029) rotate(0 3936.0003662109375 2772.0001220703125)"><path d="M32 0 M32 0 C3030.32 -22.98, 6025.81 -20.29, 7840 0 M32 0 C1793.71 -7.58, 3554.23 -7.57, 7840 0 M7840 0 C7860.36 1.01, 7868.88 8.06, 7872 32 M7840 0 C7861.93 0.83, 7868.26 7.28, 7872 32 M7872 32 C7885.42 1689.87, 7884.79 3350.66, 7872 5512 M7872 32 C7832.03 1479.8, 7832.47 2926.72, 7872 5512 M7872 5512 C7872.35 5537.09, 7863.19 5540.53, 7840 5544 M7872 5512 C7874.02 5531.05, 7862.8 5539.45, 7840 5544 M7840 5544 C5498.82 5538.73, 3160.44 5540.25, 32 5544 M7840 5544 C5262.77 5547, 2685.69 5546.24, 32 5544 M32 5544 C11.02 5541.65, -1.72 5533.77, 0 5512 M32 5544 C8.57 5547.2, 0.64 5532.67, 0 5512 M0 5512 C-7.64 3468.42, -6.82 1422.28, 0 32 M0 5512 C-29.59 4340.61, -29.89 3169.14, 0 32 M0 32 C3.27 12.68, 13.86 2.29, 32 0 M0 32 C1.46 13.48, 13.16 -3.18, 32 0" stroke="#000000" stroke-width="4" fill="none"></path></g><g stroke-linecap="round" transform="translate(10 5944.381724094404) rotate(0 3652.000198364258 2711.999969482422)"><path d="M32 0 M32 0 C2925.57 12.16, 5817.24 10.17, 7272 0 M32 0 C1515.65 -15.2, 3000.66 -14.53, 7272 0 M7272 0 C7290.08 -2.95, 7304.11 11.92, 7304 32 M7272 0 C7289.65 -0.99, 7299.95 7.86, 7304 32 M7304 32 C7289.23 1669.9, 7289.1 3308.56, 7304 5392 M7304 32 C7308.08 1360.02, 7308.06 2689.03, 7304 5392 M7304 5392 C7305.27 5409.38, 7293.32 5422.62, 7272 5424 M7304 5392 C7303.71 5408.82, 7289.36 5423.04, 7272 5424 M7272 5424 C5038.06 5466.82, 2804.35 5466.37, 32 5424 M7272 5424 C5618.49 5390.01, 3965.3 5390.48, 32 5424 M32 5424 C11.22 5423.43, 2.92 5413.97, 0 5392 M32 5424 C10.29 5422.15, 2.24 5413.86, 0 5392 M0 5392 C37.15 4116.04, 37 2840.26, 0 32 M0 5392 C-34.42 3826, -34.8 2259.57, 0 32 M0 32 C2.16 7.9, 12.85 -3.67, 32 0 M0 32 C1.31 13.5, 13.21 1.8, 32 0" stroke="#000000" stroke-width="4" fill="none"></path></g><g transform="translate(169.59378051757812 3896.0005187988277) rotate(0 2280.40576171875 230.3813273658884)"><text x="2280.40576171875" y="0" font-family="Virgil, Segoe UI Emoji" font-size="368.61012378542137px" fill="#495057" text-anchor="middle" style="white-space: pre;" direction="ltr" dominant-baseline="text-before-edge">CIENTIFICO DE DATOS</text></g><g transform="translate(11055.398468017578 3866.0005187988277) rotate(0 1378.601318359375 230.3813273658884)"><text x="1378.601318359375" y="0" font-family="Virgil, Segoe UI Emoji" font-size="368.61012378542137px" fill="#495057" text-anchor="middle" style="white-space: pre;" direction="ltr" dominant-baseline="text-before-edge">DEVOPS o SRE</text></g><g stroke-linecap="round"><g transform="translate(9433.999786376953 10690.382090305342) rotate(0 -848.131831306182 684.1847337927666)"><path d="M1.22 -2.28 C-281.24 226.14, -1412.37 1142.68, -1695.51 1370.65 M-1.56 2.65 C-284.29 230.35, -1414.36 1139.63, -1697.49 1367.08" stroke="#000000" stroke-width="4" fill="none"></path></g><g transform="translate(9433.999786376953 10690.382090305342) rotate(0 -848.131831306182 684.1847337927666)"><path d="M-1701.17 1369.3 L-1688.93 1354.31 L-1682.29 1360.24 L-1699.87 1368.55" stroke="none" stroke-width="0" fill="#000000" fill-rule="evenodd"></path><path d="M-1699.93 1367.6 C-1692.85 1361.59, -1696.5 1357.77, -1692.71 1355.12 M-1696.51 1366.89 C-1696.46 1365.11, -1694.42 1360.92, -1691.62 1354.86 M-1692.37 1352.87 C-1689.98 1358.36, -1687.24 1356.8, -1680.83 1365.34 M-1689.91 1354.7 C-1689.13 1357.47, -1686.82 1358.25, -1682.68 1362.59 M-1685.28 1365.93 C-1690.44 1367.59, -1695.01 1369.05, -1696.75 1365.87 M-1683.71 1364.6 C-1685.26 1364.54, -1688.93 1366.21, -1697.52 1367.08 M-1697.49 1367.08 C-1697.49 1367.08, -1697.49 1367.08, -1697.49 1367.08 M-1697.49 1367.08 C-1697.49 1367.08, -1697.49 1367.08, -1697.49 1367.08" stroke="#000000" stroke-width="4" fill="none"></path></g></g><mask></mask><g transform="translate(4588.971954345703 2460.0001525878906) rotate(0 2677.02978515625 230.3813273658884)"><text x="2677.02978515625" y="0" font-family="Virgil, Segoe UI Emoji" font-size="368.61012378542137px" fill="#495057" text-anchor="middle" style="white-space: pre;" direction="ltr" dominant-baseline="text-before-edge">SEO  Y MARKETING ONLINE</text></g><g stroke-linecap="round" transform="translate(90.00045776367188 1882.3814494362005) rotate(0 7176.000213623047 1364.000015258789)"><path d="M32 0 M32 0 C5563.45 -112.45, 11094.24 -111.89, 14320 0 M32 0 C4534.23 -0.13, 9036.21 1.24, 14320 0 M14320 0 C14337.55 -0.53, 14351.63 10.03, 14352 32 M14320 0 C14337.66 -0.72, 14356.55 10.39, 14352 32 M14352 32 C14345.58 1082.48, 14346.53 2135.04, 14352 2696 M14352 32 C14335.73 1046.4, 14335.22 2061.37, 14352 2696 M14352 2696 C14350.01 2715.6, 14341.63 2731.23, 14320 2728 M14352 2696 C14351.72 2720.94, 14342.78 2725.45, 14320 2728 M14320 2728 C9026.39 2711.89, 3732.32 2713.17, 32 2728 M14320 2728 C10626.76 2731.05, 6934.01 2730.28, 32 2728 M32 2728 C13.98 2731.2, 3.83 2720.2, 0 2696 M32 2728 C6.81 2724.15, 0.21 2713.88, 0 2696 M0 2696 C-7.15 1856.62, -6.61 1016.01, 0 32 M0 2696 C3.79 1793.61, 3.39 889.49, 0 32 M0 32 C-1.8 11.27, 8.04 -1.77, 32 0 M0 32 C-3.07 8.2, 14.02 1.95, 32 0" stroke="#000000" stroke-width="4" fill="none"></path></g><g transform="translate(6046.07705836039 10) rotate(0 1645.79296875 410.3813273658884)"><text x="1645.79296875" y="0" font-family="Virgil, Segoe UI Emoji" font-size="656.6101237854215px" fill="#000000" text-anchor="middle" style="white-space: pre;" direction="ltr" dominant-baseline="text-before-edge">PERFILES</text></g><g stroke-linecap="round"><g transform="translate(7785.999908447266 688.381815647138) rotate(0 -43.99993896484375 572.0000457763672)"><path d="M-2.42 -0.1 C-17.21 190.81, -71.75 952.54, -86.27 1142.92 M1.47 -2.62 C-13.77 188.9, -71.96 954.8, -87.57 1145.96" stroke="#000000" stroke-width="4" fill="none"></path></g><g transform="translate(7785.999908447266 688.381815647138) rotate(0 -43.99993896484375 572.0000457763672)"><path d="M-91.11 1142.94 L-90.45 1130.63 L-83.11 1130.25 L-87.12 1145.39" stroke="none" stroke-width="0" fill="#000000" fill-rule="evenodd"></path><path d="M-87.67 1147.81 C-90.52 1138.74, -93.33 1133.46, -91.74 1130.25 M-87.4 1146.89 C-88.52 1140.15, -91.96 1137.21, -92.06 1132.14 M-93.72 1134.33 C-89.72 1130.41, -88.24 1130.66, -78.85 1132.43 M-92.86 1132.15 C-88.84 1131.32, -84.3 1133.24, -80.71 1132.92 M-79.32 1133.73 C-81.29 1136.38, -86.68 1140.58, -85.34 1147.49 M-80.81 1132.3 C-82.61 1136.88, -86 1143.67, -87.99 1145.67 M-87.57 1145.96 C-87.57 1145.96, -87.57 1145.96, -87.57 1145.96 M-87.57 1145.96 C-87.57 1145.96, -87.57 1145.96, -87.57 1145.96" stroke="#000000" stroke-width="4" fill="none"></path></g></g><mask></mask><g stroke-linecap="round" transform="translate(1970.0007629394531 14140.38178512956) rotate(0 1631.999816894531 1488.0001831054688)"><path d="M32 0 M32 0 C988.29 -22.61, 1944.02 -23.02, 3232 0 M32 0 C693.92 18.04, 1356.12 17.26, 3232 0 M3232 0 C3252.61 2.48, 3264.04 7.49, 3264 32 M3232 0 C3255.81 2.47, 3263.12 9.91, 3264 32 M3264 32 C3242.69 977.78, 3244.65 1919.67, 3264 2944 M3264 32 C3257.87 1117.86, 3257.68 2203.43, 3264 2944 M3264 2944 C3264.72 2963.51, 3255.44 2972.7, 3232 2976 M3264 2944 C3261.07 2967.08, 3252.83 2972.28, 3232 2976 M3232 2976 C2318.43 2980.49, 1402.65 2979.08, 32 2976 M3232 2976 C2036.4 2984.37, 841.78 2983.68, 32 2976 M32 2976 C7.85 2973.68, 3.64 2968.49, 0 2944 M32 2976 C11.31 2979.63, -0.79 2969.6, 0 2944 M0 2944 C-10.22 1809.64, -10.79 674.63, 0 32 M0 2944 C18.41 2262.63, 19.72 1581.8, 0 32 M0 32 C0.68 13.81, 11.79 0.82, 32 0 M0 32 C1.79 9.58, 14.43 0.41, 32 0" stroke="#000000" stroke-width="4" fill="none"></path></g><g transform="translate(2253.605255126953 14412.548329725916) rotate(0 1368.39501953125 1229.166666666666)"><text x="1368.39501953125" y="0" font-family="Virgil, Segoe UI Emoji" font-size="393.33333333333303px" fill="#000000" text-anchor="middle" style="white-space: pre;" direction="ltr" dominant-baseline="text-before-edge">cliente, </text><text x="1368.39501953125" y="491.6666666666663" font-family="Virgil, Segoe UI Emoji" font-size="393.33333333333303px" fill="#000000" text-anchor="middle" style="white-space: pre;" direction="ltr" dominant-baseline="text-before-edge">usuario (host)</text><text x="1368.39501953125" y="983.3333333333326" font-family="Virgil, Segoe UI Emoji" font-size="393.33333333333303px" fill="#000000" text-anchor="middle" style="white-space: pre;" direction="ltr" dominant-baseline="text-before-edge"></text><text x="1368.39501953125" y="1474.9999999999989" font-family="Virgil, Segoe UI Emoji" font-size="393.33333333333303px" fill="#000000" text-anchor="middle" style="white-space: pre;" direction="ltr" dominant-baseline="text-before-edge">navegador,</text><text x="1368.39501953125" y="1966.6666666666652" font-family="Virgil, Segoe UI Emoji" font-size="393.33333333333303px" fill="#000000" text-anchor="middle" style="white-space: pre;" direction="ltr" dominant-baseline="text-before-edge">app.</text></g><g stroke-linecap="round" transform="translate(7056.000213623047 14181.464752251959) rotate(0 1651.9998168945312 1488.0001831054688)"><path d="M32 0 M32 0 C1250.69 9.12, 2469.69 10.46, 3272 0 M32 0 C1158.2 -8.13, 2284.03 -7.37, 3272 0 M3272 0 C3293.47 0.13, 3303.88 12.66, 3304 32 M3272 0 C3289.51 4.36, 3301.63 15.16, 3304 32 M3304 32 C3326.36 1018.35, 3324.96 2004.73, 3304 2944 M3304 32 C3317.82 967.74, 3317.77 1904.76, 3304 2944 M3304 2944 C3302.84 2961.59, 3296.18 2973.97, 3272 2976 M3304 2944 C3302.78 2968.69, 3293.17 2972.15, 3272 2976 M3272 2976 C2387.93 2976.88, 1504.26 2979.4, 32 2976 M3272 2976 C2082.35 2967.54, 893.51 2967.29, 32 2976 M32 2976 C7.69 2976.09, -2.62 2966.92, 0 2944 M32 2976 C10.82 2972.77, -1.47 2963.24, 0 2944 M0 2944 C9.82 1979.53, 8.75 1017.95, 0 32 M0 2944 C-18.3 1919.1, -18.84 893.95, 0 32 M0 32 C-3.59 13.66, 13.46 3.57, 32 0 M0 32 C2.64 7.83, 6.52 0.61, 32 0" stroke="#000000" stroke-width="4" fill="none"></path></g><g transform="translate(7760.882476806641 14621.630869602217) rotate(0 1019.1179809570312 983.3333333333321)"><text x="1019.1179809570312" y="0" font-family="Virgil, Segoe UI Emoji" font-size="393.33333333333303px" fill="#000000" text-anchor="middle" style="white-space: pre;" direction="ltr" dominant-baseline="text-before-edge">servidor</text><text x="1019.1179809570312" y="491.6666666666663" font-family="Virgil, Segoe UI Emoji" font-size="393.33333333333303px" fill="#000000" text-anchor="middle" style="white-space: pre;" direction="ltr" dominant-baseline="text-before-edge"></text><text x="1019.1179809570312" y="983.3333333333326" font-family="Virgil, Segoe UI Emoji" font-size="393.33333333333303px" fill="#000000" text-anchor="middle" style="white-space: pre;" direction="ltr" dominant-baseline="text-before-edge">navegador,</text><text x="1019.1179809570312" y="1474.9999999999989" font-family="Virgil, Segoe UI Emoji" font-size="393.33333333333303px" fill="#000000" text-anchor="middle" style="white-space: pre;" direction="ltr" dominant-baseline="text-before-edge">app.</text></g></svg>