<svg version="1.1" xmlns="http://www.w3.org/2000/svg" viewBox="0 0 15897.611070196039 14976.000061035156" width="15897.611070196039" height="14976.000061035156">
  <!-- svg-source:excalidraw -->
  
  <defs>
    <style class="style-fonts">
      @font-face {
        font-family: "Virgil";
        src: url("https://excalidraw.com/Virgil.woff2");
      }
      @font-face {
        font-family: "Cascadia";
        src: url("https://excalidraw.com/Cascadia.woff2");
      }
    </style>
  </defs>
  <rect x="0" y="0" width="15897.611070196039" height="14976.000061035156" fill="#ffffff"></rect><g transform="translate(2765.096147004727 1654.0195936190958) rotate(0 2043.5775146484375 291.7076769749383)"><text x="2043.5775146484375" y="0" font-family="Virgil, Segoe UI Emoji" font-size="466.7322831599007px" fill="#000000" text-anchor="middle" style="white-space: pre;" direction="ltr" dominant-baseline="text-before-edge">RGB(255,20,255)</text></g><g stroke-linecap="round"><g transform="translate(4103.787784115015 2193.906403207986) rotate(0 -150.00434024560946 421.098182668743)"><path d="M2.02 -2.54 C-47.71 138.11, -249.66 703.7, -299.4 844.73 M-0.33 2.26 C-50.41 141.93, -252.57 699.34, -302.03 840.06" stroke="#000000" stroke-width="4" fill="none"></path></g><g transform="translate(4103.787784115015 2193.906403207986) rotate(0 -150.00434024560946 421.098182668743)"><path d="M-305.44 839.12 L-299.49 823.06 L-289.19 826.68 L-303.21 841.78" stroke="none" stroke-width="0" fill="#000000" fill-rule="evenodd"></path><path d="M-304.75 839.29 C-301.82 838.53, -303.32 829.22, -303.85 822.9 M-302.72 840.81 C-301.62 834.47, -302.72 828.25, -303.7 826.13 M-303.81 826.83 C-299.51 826.71, -297.35 828.51, -289.82 831.84 M-303.64 824.89 C-299.91 825.98, -294.75 828.1, -291.42 829.08 M-289.44 830.5 C-297.54 833.92, -301.19 836.98, -299.61 838.71 M-292.26 828.01 C-293.84 832.79, -298.31 834.01, -301.42 838.59 M-302.03 840.06 C-302.03 840.06, -302.03 840.06, -302.03 840.06 M-302.03 840.06 C-302.03 840.06, -302.03 840.06, -302.03 840.06" stroke="#000000" stroke-width="4" fill="none"></path></g></g><mask></mask><g transform="translate(3455.919071673387 3114.012862927073) rotate(0 329.735107421875 193.32706208708078)"><text x="329.735107421875" y="0" font-family="Virgil, Segoe UI Emoji" font-size="309.32329933932925px" fill="#000000" text-anchor="middle" style="white-space: pre;" direction="ltr" dominant-baseline="text-before-edge">RED</text></g><g transform="translate(4524.586294248342 3128.11832173159) rotate(0 443.9453125 160.43668066271766)"><text x="443.9453125" y="0" font-family="Virgil, Segoe UI Emoji" font-size="256.69868906034793px" fill="#000000" text-anchor="middle" style="white-space: pre;" direction="ltr" dominant-baseline="text-before-edge">GREEN</text></g><g stroke-linecap="round"><g transform="translate(4742.287698872499 2123.563274825683) rotate(0 75.00003845981246 477.7979482148421)"><path d="M-1.55 2.73 C24.13 160.99, 126.16 792.95, 151.55 951.73 M2.8 1.74 C28.53 160.04, 126.02 795.76, 150.51 953.85" stroke="#000000" stroke-width="4" fill="none"></path></g><g transform="translate(4742.287698872499 2123.563274825683) rotate(0 75.00003845981246 477.7979482148421)"><path d="M151.06 954.27 L140.96 939.95 L155.93 939.28 L150.37 954.58" stroke="none" stroke-width="0" fill="#000000" fill-rule="evenodd"></path><path d="M153.44 956.22 C145.59 952.68, 147.75 951.37, 143.24 938.83 M151.05 954.32 C147.33 952.37, 146.3 948.69, 143.15 942.35 M142.72 943.14 C145.36 942.2, 149.92 938.8, 153.76 939.7 M142.14 940.79 C144.66 940.54, 149.52 940.48, 154.42 940.51 M155.79 941.31 C151.27 940.99, 155.08 946.96, 151.4 951.02 M155.52 938.82 C152.41 944.81, 152.33 949.16, 149.54 954.43 M150.51 953.85 C150.51 953.85, 150.51 953.85, 150.51 953.85 M150.51 953.85 C150.51 953.85, 150.51 953.85, 150.51 953.85" stroke="#000000" stroke-width="4" fill="none"></path></g></g><mask></mask><g transform="translate(5989.126908362942 3101.0631580322442) rotate(0 348.32830810546875 160.43668066271766)"><text x="348.32830810546875" y="0" font-family="Virgil, Segoe UI Emoji" font-size="256.69868906034793px" fill="#000000" text-anchor="middle" style="white-space: pre;" direction="ltr" dominant-baseline="text-before-edge">BLUE</text></g><g stroke-linecap="round"><g transform="translate(5395.938393012461 2173.3446075987486) rotate(0 412.16890380799305 433.2352358417056)"><path d="M2.45 1.73 C139.69 145.84, 687.12 719.02, 824 862.98 M0.34 0.2 C137.3 144.89, 685.55 722.8, 822.59 866.27" stroke="#000000" stroke-width="4" fill="none"></path></g><g transform="translate(5395.938393012461 2173.3446075987486) rotate(0 412.16890380799305 433.2352358417056)"><path d="M819.58 863.08 L811.06 859.39 L820.24 853.53 L820.35 869.84" stroke="none" stroke-width="0" fill="#000000" fill-rule="evenodd"></path><path d="M824.45 867.9 C817.53 866.11, 815.76 862.43, 811.29 862.41 M823.49 865.5 C817.06 865.72, 812.83 863.47, 807.55 861.71 M810.4 858.65 C810.65 858.83, 811.91 853.82, 816.86 850.68 M807.39 860.19 C809.34 858.58, 812.02 856.1, 816.75 851.99 M818.99 852.17 C818.88 857.56, 819.41 861.19, 824.56 864.02 M817.31 851.94 C819.83 856.17, 821.29 859.86, 822.69 865.43 M822.59 866.27 C822.59 866.27, 822.59 866.27, 822.59 866.27 M822.59 866.27 C822.59 866.27, 822.59 866.27, 822.59 866.27" stroke="#000000" stroke-width="4" fill="none"></path></g></g><mask></mask><g transform="translate(1521.3897501627594 4073.144610290661) rotate(0 3450.77783203125 1244.6090202587388)"><text x="3450.77783203125" y="0" font-family="Virgil, Segoe UI Emoji" font-size="497.8436081034955px" fill="#000000" text-anchor="middle" style="white-space: pre;" direction="ltr" dominant-baseline="text-before-edge">HD = 1280*720 = 720P</text><text x="3450.77783203125" y="622.3045101293694" font-family="Virgil, Segoe UI Emoji" font-size="497.8436081034955px" fill="#000000" text-anchor="middle" style="white-space: pre;" direction="ltr" dominant-baseline="text-before-edge">FHD = 1920*1080 = 1080P</text><text x="3450.77783203125" y="1244.6090202587388" font-family="Virgil, Segoe UI Emoji" font-size="497.8436081034955px" fill="#000000" text-anchor="middle" style="white-space: pre;" direction="ltr" dominant-baseline="text-before-edge">2K = 2560*1440 = 1440P</text><text x="3450.77783203125" y="1866.9135303881083" font-family="Virgil, Segoe UI Emoji" font-size="497.8436081034955px" fill="#000000" text-anchor="middle" style="white-space: pre;" direction="ltr" dominant-baseline="text-before-edge">4K = 4096 * 2160 = 2160P</text></g><g transform="translate(1683.815462803535 798.8966652417203) rotate(0 3451.853759765625 258.1302440351337)"><text x="3451.853759765625" y="0" font-family="Virgil, Segoe UI Emoji" font-size="413.0083904562142px" fill="#000000" text-anchor="middle" style="white-space: pre;" direction="ltr" dominant-baseline="text-before-edge">2^8 = 0-255; 2 = (0,1); 8 = bits</text></g><g transform="translate(10 7718.947980152236) rotate(0 5642.6669921875 975.7246772504398)"><text x="0" y="0" font-family="Virgil, Segoe UI Emoji" font-size="390.2898709001759px" fill="#000000" text-anchor="start" style="white-space: pre;" direction="ltr" dominant-baseline="text-before-edge">Binario = 0, 1</text><text x="0" y="487.8623386252199" font-family="Virgil, Segoe UI Emoji" font-size="390.2898709001759px" fill="#000000" text-anchor="start" style="white-space: pre;" direction="ltr" dominant-baseline="text-before-edge">Decimal = 0, 1, 2, 3, 4, 5, 6, 7, 8, 9</text><text x="0" y="975.7246772504398" font-family="Virgil, Segoe UI Emoji" font-size="390.2898709001759px" fill="#000000" text-anchor="start" style="white-space: pre;" direction="ltr" dominant-baseline="text-before-edge">Hexadecimal = 0, 1, 2, 3, 4, 5, 6, 7, 8, 9, A, B, C, D, E, F</text><text x="0" y="1463.5870158756597" font-family="Virgil, Segoe UI Emoji" font-size="390.2898709001759px" fill="#000000" text-anchor="start" style="white-space: pre;" direction="ltr" dominant-baseline="text-before-edge"></text></g><g stroke-linecap="round" transform="translate(1216.5012817382794 10) rotate(0 3852.000122070312 1871.9998931884766)"><path d="M32 0 M32 0 C2907.35 -52.58, 5784.5 -55.16, 7672 0 M32 0 C1776.39 43.09, 3519.42 43.39, 7672 0 M7672 0 C7693.6 -1.27, 7707.42 10.54, 7704 32 M7672 0 C7689.93 -2.6, 7701.53 9, 7704 32 M7704 32 C7686.31 1052.25, 7687.35 2074.62, 7704 3712 M7704 32 C7690.91 1013.71, 7689.97 1996.34, 7704 3712 M7704 3712 C7706.21 3732.14, 7690.49 3743.82, 7672 3744 M7704 3712 C7700.35 3731.64, 7692.13 3744.82, 7672 3744 M7672 3744 C5062.53 3728.45, 2455.72 3729.8, 32 3744 M7672 3744 C5909.24 3715.32, 4145.53 3716.29, 32 3744 M32 3744 C13.1 3743.47, 0.59 3730.75, 0 3712 M32 3744 C8.26 3746.37, -0.31 3735.76, 0 3712 M0 3712 C0.91 2636.59, 2.78 1561.79, 0 32 M0 3712 C18.84 2755.63, 18.48 1798.88, 0 32 M0 32 C-3.04 13.1, 14.65 -3.76, 32 0 M0 32 C1.87 13.96, 12.4 -3.05, 32 0" stroke="#000000" stroke-width="4" fill="none"></path></g><g stroke-linecap="round" transform="translate(9712.50042724609 84.00001525878906) rotate(0 1988.00048828125 744.0000152587891)"><path d="M32 0 M32 0 C1433.56 -2.75, 2834.35 -0.74, 3944 0 M32 0 C1065.45 -16.14, 2099.27 -15.82, 3944 0 M3944 0 C3968.09 -0.44, 3978.09 12.48, 3976 32 M3944 0 C3961.71 -4.01, 3971.75 14.59, 3976 32 M3976 32 C3982.13 346.98, 3981.58 658.77, 3976 1456 M3976 32 C3975.27 488.56, 3975.26 945.9, 3976 1456 M3976 1456 C3979.82 1479.85, 3964.01 1486.57, 3944 1488 M3976 1456 C3974.6 1473.5, 3967.19 1491.21, 3944 1488 M3944 1488 C2595.91 1500.52, 1243.91 1500.34, 32 1488 M3944 1488 C2736.49 1489.33, 1530.52 1489.79, 32 1488 M32 1488 C10.5 1491.54, -0.93 1479.58, 0 1456 M32 1488 C6.38 1490.9, -4.04 1476.44, 0 1456 M0 1456 C1.02 1026.77, 3.19 598.73, 0 32 M0 1456 C4.19 1023.97, 3.1 590.85, 0 32 M0 32 C0.27 13.46, 8.87 2.51, 32 0 M0 32 C3.28 13.08, 13.17 -0.09, 32 0" stroke="#000000" stroke-width="4" fill="none"></path></g><g transform="translate(11303.077606201168 222.29287234146796) rotate(0 425.4244079589844 291.7076769749383)"><text x="425.4244079589844" y="0" font-family="Virgil, Segoe UI Emoji" font-size="466.7322831599007px" fill="#000000" text-anchor="middle" style="white-space: pre;" direction="ltr" dominant-baseline="text-before-edge">HEX</text></g><g transform="translate(11172.935791015621 1019.3748340368493) rotate(0 501.56597900390625 188.1658568938492)"><text x="501.56597900390625" y="0" font-family="Virgil, Segoe UI Emoji" font-size="301.0653710301589px" fill="#000000" text-anchor="middle" style="white-space: pre;" direction="ltr" dominant-baseline="text-before-edge">#F1F1F1</text></g><g stroke-linecap="round" transform="translate(9804.501770019528 1921.9998931884766) rotate(0 1988.00048828125 744.0000152587891)"><path d="M32 0 M32 0 C1355.28 25.29, 2677.21 25.8, 3944 0 M32 0 C1133.13 -22.5, 2233.94 -21.65, 3944 0 M3944 0 C3967.5 -2.14, 3978.94 10.49, 3976 32 M3944 0 C3968.83 -2.64, 3976.21 9.5, 3976 32 M3976 32 C3985.49 377.96, 3983.5 724.4, 3976 1456 M3976 32 C3974.18 448.44, 3974.22 866.47, 3976 1456 M3976 1456 C3973.6 1480.66, 3966.42 1485.27, 3944 1488 M3976 1456 C3979.11 1477.1, 3962.15 1490.08, 3944 1488 M3944 1488 C2847.4 1499.47, 1750.01 1498.43, 32 1488 M3944 1488 C3040.03 1469.29, 2136.97 1469.04, 32 1488 M32 1488 C7.67 1490.36, -1.11 1474.35, 0 1456 M32 1488 C13.23 1487.11, -2.04 1474.92, 0 1456 M0 1456 C-3.4 1029.1, -2.87 601.99, 0 32 M0 1456 C-11.38 1118.39, -11.55 779.85, 0 32 M0 32 C2.31 8.94, 12.27 3.96, 32 0 M0 32 C-0.77 9.93, 13.53 -2.32, 32 0" stroke="#000000" stroke-width="4" fill="none"></path></g><g transform="translate(11410.247680664059 2060.2927502711573) rotate(0 410.25567626953125 291.7076769749383)"><text x="410.25567626953125" y="0" font-family="Virgil, Segoe UI Emoji" font-size="466.7322831599007px" fill="#000000" text-anchor="middle" style="white-space: pre;" direction="ltr" dominant-baseline="text-before-edge">HSL</text></g><g transform="translate(10461.946838378903 2601.3746509313823) rotate(0 1316.55517578125 101.84002743575547)"><text x="1316.55517578125" y="0" font-family="Virgil, Segoe UI Emoji" font-size="162.9440438972094px" fill="#000000" text-anchor="middle" style="white-space: pre;" direction="ltr" dominant-baseline="text-before-edge">hsl(tono, saturación, luminosidad)</text></g><g transform="translate(10451.01605224609 2923.8341125885727) rotate(0 1245.4852294921875 188.1658568938492)"><text x="1245.4852294921875" y="0" font-family="Virgil, Segoe UI Emoji" font-size="301.0653710301589px" fill="#000000" text-anchor="middle" style="white-space: pre;" direction="ltr" dominant-baseline="text-before-edge">hsl(0, 0%, 80%)</text></g><g transform="translate(2937.8345336914044 11236.274681880419) rotate(0 309.88232421875 243.93116931260988)"><text x="0" y="0" font-family="Virgil, Segoe UI Emoji" font-size="390.2898709001759px" fill="#000000" text-anchor="start" style="white-space: pre;" direction="ltr" dominant-baseline="text-before-edge">css</text></g><g stroke-linecap="round" transform="translate(2552.501647949217 11755.999908447266) rotate(0 760 1008.0001831054688)"><path d="M32 0 M32 0 C398.45 11.97, 764.77 11.7, 1488 0 M32 0 C471.58 -10.05, 911.07 -9.65, 1488 0 M1488 0 C1508.54 -3.61, 1517.19 9.49, 1520 32 M1488 0 C1508.51 -0.71, 1521.98 14.24, 1520 32 M1520 32 C1525.92 693.76, 1527.28 1359.43, 1520 1984 M1520 32 C1518.69 743.28, 1518.29 1453.55, 1520 1984 M1520 1984 C1522.29 2003.44, 1513.27 2015.3, 1488 2016 M1520 1984 C1518.79 2000.79, 1505.51 2019.23, 1488 2016 M1488 2016 C934.96 2006.25, 379.32 2006.1, 32 2016 M1488 2016 C1125.07 2026.41, 764.36 2027.08, 32 2016 M32 2016 C14.27 2013.96, -3.84 2004.31, 0 1984 M32 2016 C7.09 2017.84, 3.32 2006.61, 0 1984 M0 1984 C-14.42 1403.9, -15.9 824.76, 0 32 M0 1984 C-6.33 1472.24, -6.36 960.62, 0 32 M0 32 C0.96 10.5, 7.7 -1.57, 32 0 M0 32 C-1.73 8.91, 11.6 -0.67, 32 0" stroke="#000000" stroke-width="4" fill="none"></path></g><g stroke-linecap="round"><g transform="translate(4352.501647949217 12583.999786376953) rotate(0 1113.4438095625121 -918.3569637085869)"><path d="M-0.36 -1.8 C371.5 -308.76, 1859.11 -1533.28, 2230.88 -1840.1 M-3.99 3.39 C367.41 -303.24, 1854.67 -1529.11, 2228.03 -1836.53" stroke="#000000" stroke-width="4" fill="none"></path></g><g transform="translate(4352.501647949217 12583.999786376953) rotate(0 1113.4438095625121 -918.3569637085869)"><path d="M2231.19 -1837.95 L2219.79 -1820.27 L2212.41 -1832.81 L2229.69 -1832.78" stroke="none" stroke-width="0" fill="#000000" fill-rule="evenodd"></path><path d="M2226.1 -1837.73 C2226.2 -1834.43, 2221.49 -1828.45, 2223.19 -1823.28 M2227.68 -1837.85 C2226.1 -1834.58, 2224.01 -1828.28, 2222.89 -1823.31 M2220.33 -1823.96 C2216.79 -1827.89, 2214.31 -1828.32, 2213.6 -1831.01 M2222.62 -1821.91 C2219.12 -1826.63, 2216.12 -1829.24, 2212.92 -1831.65 M2210.89 -1835.35 C2220.31 -1834.97, 2219.55 -1833, 2225.64 -1838.42 M2212.55 -1832.21 C2216.81 -1832.58, 2223.43 -1833.6, 2226.88 -1835.63 M2228.03 -1836.53 C2228.03 -1836.53, 2228.03 -1836.53, 2228.03 -1836.53 M2228.03 -1836.53 C2228.03 -1836.53, 2228.03 -1836.53, 2228.03 -1836.53" stroke="#000000" stroke-width="4" fill="none"></path></g></g><mask></mask><g stroke-linecap="round"><g transform="translate(4344.501159667967 12583.999786376953) rotate(0 1135.4598527878152 17.287753627337523)"><path d="M0.1 1.95 C379.54 7.49, 1895.34 28.64, 2274.21 34.03 M-3.3 0.54 C376.2 5.24, 1893.93 25.21, 2273.18 30.12" stroke="#000000" stroke-width="4" fill="none"></path></g><g transform="translate(4344.501159667967 12583.999786376953) rotate(0 1135.4598527878152 17.287753627337523)"><path d="M2274.87 30.7 L2255.97 39.47 L2259.33 22.87 L2274.76 32.56" stroke="none" stroke-width="0" fill="#000000" fill-rule="evenodd"></path><path d="M2275.27 32.5 C2272.48 32.86, 2269.86 35.3, 2261.26 36.27 M2274.51 29.67 C2269.18 32.68, 2262.04 33.19, 2260.96 35.74 M2257.9 36.62 C2257.8 32.3, 2257.81 31.12, 2257.49 25.74 M2260.27 36.04 C2258.48 31.19, 2260.5 26.36, 2260.64 22.79 M2261.91 23.5 C2264 26.47, 2267.74 31.08, 2275.99 29.52 M2260.33 24.79 C2264.05 25.09, 2270.53 27.72, 2273.16 30.74 M2273.18 30.12 C2273.18 30.12, 2273.18 30.12, 2273.18 30.12 M2273.18 30.12 C2273.18 30.12, 2273.18 30.12, 2273.18 30.12" stroke="#000000" stroke-width="4" fill="none"></path></g></g><mask></mask><g stroke-linecap="round"><g transform="translate(4360.501525878904 12600.00015258789) rotate(0 1084.7169474645334 861.6489562318848)"><path d="M-2.2 2.14 C359.07 288.8, 1804.13 1436.56, 2166.21 1722.46 M1.8 0.83 C364.1 287.98, 1810.33 1432.38, 2171.63 1718.79" stroke="#000000" stroke-width="4" fill="none"></path></g><g transform="translate(4360.501525878904 12600.00015258789) rotate(0 1084.7169474645334 861.6489562318848)"><path d="M2169.29 1719.13 L2155.63 1713.98 L2163.25 1703.03 L2174.26 1719.65" stroke="none" stroke-width="0" fill="#000000" fill-rule="evenodd"></path><path d="M2173.93 1716.87 C2170.56 1720.09, 2161.64 1719.07, 2156.93 1714.3 M2173.04 1718.49 C2168.24 1717.88, 2164.08 1717.56, 2158.22 1714.79 M2157.02 1716.37 C2161.29 1710.64, 2161.92 1712.16, 2165.77 1703.51 M2156.87 1716.56 C2158.72 1712.68, 2161.38 1709.73, 2164.26 1705.64 M2166.41 1707.04 C2167.95 1708.87, 2165.62 1714, 2171.38 1718.24 M2164.28 1705.96 C2167.43 1710.61, 2168.36 1714.11, 2171.22 1718.67 M2171.63 1718.79 C2171.63 1718.79, 2171.63 1718.79, 2171.63 1718.79 M2171.63 1718.79 C2171.63 1718.79, 2171.63 1718.79, 2171.63 1718.79" stroke="#000000" stroke-width="4" fill="none"></path></g></g><mask></mask><g stroke-linecap="round"><g transform="translate(3616.5012817382794 11775.999908447266) rotate(0 221.98877991016957 250.92037442862988)"><path d="M0.24 -0.99 C74.8 83.09, 372.71 418.37, 447.06 502.84 M-3.08 -3.99 C71.05 80.61, 368.41 421.62, 444.31 505.84" stroke="#000000" stroke-width="4" fill="none"></path></g></g><mask></mask><g stroke-linecap="round" transform="translate(6766.501281738279 10331.99966430664) rotate(0 583.9996337890625 620.0001525878906)"><path d="M32 0 M32 0 C270.6 -2.43, 508.93 -3.71, 1136 0 M32 0 C432.95 5.8, 834.64 7.15, 1136 0 M1136 0 C1154.2 -3.87, 1171.4 8.61, 1168 32 M1136 0 C1153.22 -1.93, 1165.58 13.83, 1168 32 M1168 32 C1170.81 472.41, 1171.21 913.41, 1168 1208 M1168 32 C1158.99 374.07, 1159.36 715.95, 1168 1208 M1168 1208 C1171.75 1231.76, 1161.08 1237.08, 1136 1240 M1168 1208 C1163.91 1229.68, 1161.22 1238.24, 1136 1240 M1136 1240 C766.93 1242.38, 397.32 1242.71, 32 1240 M1136 1240 C903.53 1240.21, 670.5 1239.96, 32 1240 M32 1240 C8.08 1236.34, -2.31 1231.01, 0 1208 M32 1240 C7.11 1240.45, -0.53 1227.44, 0 1208 M0 1208 C5.73 869.07, 7.3 533.69, 0 32 M0 1208 C7.2 964.34, 7.7 722.02, 0 32 M0 32 C-1.16 11.56, 10.71 -2.15, 32 0 M0 32 C4.12 11.42, 10.94 -3.09, 32 0" stroke="#000000" stroke-width="4" fill="none"></path></g><g stroke-linecap="round"><g transform="translate(6872.501037597654 10679.99984741211) rotate(0 383.3192699559404 20.484271324686688)"><path d="M1.17 -2.16 C129.65 4.72, 640.66 32.71, 768.27 39.68 M-1.63 2.83 C126.72 10.31, 638.51 36.51, 766.18 43.13" stroke="#000000" stroke-width="4" fill="none"></path></g></g><mask></mask><g stroke-linecap="round"><g transform="translate(7064.501770019529 10944.000091552734) rotate(0 311.36529592353827 -8.285181327536748)"><path d="M0.82 -0.64 C104.64 -3.4, 521.1 -13.03, 624.9 -15.93 M-2.17 -3.46 C101.18 -5.79, 519.18 -10.17, 623.15 -12.26" stroke="#000000" stroke-width="4" fill="none"></path></g></g><mask></mask><g stroke-linecap="round"><g transform="translate(7088.502014160154 11264.000091552734) rotate(0 282.2900076765568 -40.33138384360825)"><path d="M-2.58 2.44 C91.61 -10.94, 471.79 -65.15, 567.16 -78.76 M1.22 1.29 C94.77 -13.07, 469.88 -70.27, 564.46 -83.1" stroke="#000000" stroke-width="4" fill="none"></path></g></g><mask></mask><g stroke-linecap="round" transform="translate(6786.501892089843 11973.999938964844) rotate(0 583.9996337890625 620.0001525878906)"><path d="M32 0 M32 0 C292.73 -1.21, 555.18 1.44, 1136 0 M32 0 C312.58 4.89, 593.55 5.09, 1136 0 M1136 0 C1159.56 -2.87, 1165.17 12.44, 1168 32 M1136 0 C1159.43 -3.31, 1172.23 9.62, 1168 32 M1168 32 C1172.9 458.65, 1175.08 885.73, 1168 1208 M1168 32 C1167.12 283.07, 1166.47 535.52, 1168 1208 M1168 1208 C1166.22 1226.57, 1159.06 1243.31, 1136 1240 M1168 1208 C1165.52 1227.89, 1157.33 1239.94, 1136 1240 M1136 1240 C913.5 1238.51, 691.24 1237.21, 32 1240 M1136 1240 C705.8 1239.66, 274.54 1239.67, 32 1240 M32 1240 C10.93 1236.68, 1.21 1225.74, 0 1208 M32 1240 C10.46 1243.24, -1.36 1233.29, 0 1208 M0 1208 C-0.17 928.63, -2.5 648.67, 0 32 M0 1208 C-6.86 754.79, -6.86 302.32, 0 32 M0 32 C-3.16 12.43, 12 -2.9, 32 0 M0 32 C-0.24 15.23, 10.26 4.21, 32 0" stroke="#000000" stroke-width="4" fill="none"></path></g><g stroke-linecap="round"><g transform="translate(6892.501647949218 12322.000122070312) rotate(0 383.8514480870217 19.756156446337684)"><path d="M-2.46 0.21 C125.91 6.9, 641.37 32.37, 770.16 38.72 M1.4 -2.15 C129.6 5.04, 641.04 34.55, 769.1 41.66" stroke="#000000" stroke-width="4" fill="none"></path></g></g><mask></mask><g stroke-linecap="round"><g transform="translate(7084.502380371093 12586.000366210938) rotate(0 313.101620944105 -6.7478936755284735)"><path d="M2.16 -1.28 C106.96 -4.26, 522.82 -14.98, 626.31 -17.7 M-0.11 4.2 C104.75 1.53, 521.84 -11.73, 625.33 -14.99" stroke="#000000" stroke-width="4" fill="none"></path></g></g><mask></mask><g stroke-linecap="round"><g transform="translate(7108.502624511718 12906.000366210938) rotate(0 283.61387874301545 -39.021827747784556)"><path d="M2.31 -1.7 C96.47 -15.08, 472.89 -68.4, 567.11 -81.6 M0.12 3.55 C93.63 -9.38, 470.15 -65.19, 564.39 -78.84" stroke="#000000" stroke-width="4" fill="none"></path></g></g><mask></mask><g stroke-linecap="round" transform="translate(6766.501892089842 13725.999755859375) rotate(0 583.9996337890625 620.0001525878906)"><path d="M32 0 M32 0 C365.88 4.91, 697.8 6.06, 1136 0 M32 0 C338.46 -9.32, 646.74 -8.12, 1136 0 M1136 0 C1156.13 -0.47, 1164.64 11.39, 1168 32 M1136 0 C1158.09 0.95, 1171.37 12.79, 1168 32 M1168 32 C1161.05 309.57, 1160.99 586.74, 1168 1208 M1168 32 C1173.32 442.77, 1174.34 853.08, 1168 1208 M1168 1208 C1171.71 1226.08, 1156.38 1239.59, 1136 1240 M1168 1208 C1171.62 1233.77, 1161.82 1240.22, 1136 1240 M1136 1240 C882.33 1244.94, 626.89 1242.87, 32 1240 M1136 1240 C879.18 1237.52, 624.03 1236.21, 32 1240 M32 1240 C7.92 1241.2, -1.32 1228.7, 0 1208 M32 1240 C13.24 1237.16, -1.15 1226.54, 0 1208 M0 1208 C7.44 907.22, 6.86 606.98, 0 32 M0 1208 C5.74 962.86, 6.74 715.93, 0 32 M0 32 C-0.7 13.51, 14.19 2.87, 32 0 M0 32 C-0.98 13.39, 10.41 1.27, 32 0" stroke="#000000" stroke-width="4" fill="none"></path></g><g stroke-linecap="round"><g transform="translate(6872.501647949217 14073.999938964844) rotate(0 382.69419377859685 19.61180678069593)"><path d="M-0.46 -0.64 C128.07 5.69, 641.86 32.15, 769.55 39.39 M-4.16 -3.46 C124.29 3.17, 638.92 35.65, 768.15 42.69" stroke="#000000" stroke-width="4" fill="none"></path></g></g><mask></mask><g stroke-linecap="round"><g transform="translate(7064.502380371092 14330.000305175781) rotate(0 312.8667459756134 -8.677508624754864)"><path d="M1.55 -0.61 C105.23 -2.71, 518.3 -10.32, 621.66 -13.23 M-1.06 -3.41 C103.53 -6.16, 522.06 -14.62, 626.79 -16.74" stroke="#000000" stroke-width="4" fill="none"></path></g></g><mask></mask><g stroke-linecap="round"><g transform="translate(7088.502624511717 14658.000183105469) rotate(0 284.27869281943913 -39.6665869455785)"><path d="M-2.34 2.77 C91.69 -10.82, 470.37 -68.65, 565.73 -82.1 M1.59 1.8 C96.34 -11.44, 476.32 -65.59, 570.9 -79.61" stroke="#000000" stroke-width="4" fill="none"></path></g></g><mask></mask><g transform="translate(7352.618713378904 9872.068891722549) rotate(0 381.49871826171875 243.93116931260988)"><text x="0" y="0" font-family="Virgil, Segoe UI Emoji" font-size="390.2898709001759px" fill="#000000" text-anchor="start" style="white-space: pre;" direction="ltr" dominant-baseline="text-before-edge">html</text></g><g transform="translate(7527.003295898436 11584.06870861708) rotate(0 381.49871826171875 243.93116931260994)"><text x="0" y="0" font-family="Virgil, Segoe UI Emoji" font-size="390.2898709001759px" fill="#000000" text-anchor="start" style="white-space: pre;" direction="ltr" dominant-baseline="text-before-edge">html</text></g><g transform="translate(7569.001586914061 13328.068800169814) rotate(0 381.49871826171875 243.93116931260988)"><text x="0" y="0" font-family="Virgil, Segoe UI Emoji" font-size="390.2898709001759px" fill="#000000" text-anchor="start" style="white-space: pre;" direction="ltr" dominant-baseline="text-before-edge">html</text></g><g stroke-linecap="round" transform="translate(9114.529500301407 11075.665744725582) rotate(0 1516.093058165121 1210.1671581547878)"><path d="M32 0 M32 0 C966.78 -19.78, 1898.44 -21.28, 3000.19 0 M32 0 C1173.75 20.13, 2316 19.72, 3000.19 0 M3000.19 0 C3022.6 2.13, 3033.68 12.61, 3032.19 32 M3000.19 0 C3019.64 -0.27, 3034.36 8.97, 3032.19 32 M3032.19 32 C3043.36 593.5, 3044.48 1152.15, 3032.19 2388.33 M3032.19 32 C3035.2 720.57, 3035.39 1409.52, 3032.19 2388.33 M3032.19 2388.33 C3028.34 2411.77, 3023.15 2422.15, 3000.19 2420.33 M3032.19 2388.33 C3029.86 2412.26, 3021.86 2422.19, 3000.19 2420.33 M3000.19 2420.33 C1994.18 2424.21, 986.31 2424.59, 32 2420.33 M3000.19 2420.33 C2065.87 2407.32, 1132.08 2406.17, 32 2420.33 M32 2420.33 C11.45 2424, -2.64 2407.54, 0 2388.33 M32 2420.33 C7.99 2421.62, -1.58 2414.25, 0 2388.33 M0 2388.33 C-6.32 1821.7, -4.54 1253.29, 0 32 M0 2388.33 C16.3 1562.41, 14.93 736.52, 0 32 M0 32 C-2.4 7.14, 13.29 -0.86, 32 0 M0 32 C0.41 7.35, 8.79 -1.72, 32 0" stroke="#000000" stroke-width="4" fill="none"></path></g><g transform="translate(10105.743722077044 10545.079967404497) rotate(0 988.9774780273438 165.09926449328066)"><text x="0" y="0" font-family="Virgil, Segoe UI Emoji" font-size="264.15882318924906px" fill="#000000" text-anchor="start" style="white-space: pre;" direction="ltr" dominant-baseline="text-before-edge">jpg, jpeg, png ...</text></g><g stroke-linecap="round"><g transform="translate(9220.114593876737 11088.525421319404) rotate(0 2.5450969578396325 1184.739258677773)"><path d="M2.49 2.32 C3.24 397.13, 4.73 1972.2, 4.7 2366.2 M0.39 1.11 C0.94 396.4, 3.56 1973.88, 3.54 2368.37" stroke="#000000" stroke-width="4" fill="none"></path></g></g><mask></mask><g stroke-linecap="round"><g transform="translate(9341.943500336434 11085.818153597223) rotate(0 0.7012542691827548 1177.757890688741)"><path d="M0.68 -0.51 C0.73 392.08, -1.76 1962.76, -1.69 2356.17 M-2.39 -3.25 C-1.25 389.58, 3.42 1965.65, 3.79 2358.77" stroke="#000000" stroke-width="4" fill="none"></path></g></g><mask></mask><g stroke-linecap="round"><g transform="translate(9453.145369920243 11093.449497538073) rotate(0 1.270797682965167 1178.0214812053753)"><path d="M1.54 -1.19 C1.66 392.12, -1.08 1967.14, -1.53 2360.35 M-1.07 -4.31 C0.19 388.21, 4.46 1962.34, 4.04 2356.58" stroke="#000000" stroke-width="4" fill="none"></path></g></g><mask></mask><g stroke-linecap="round"><g transform="translate(9551.285219070465 11092.095760401338) rotate(0 0.8199563109837982 1179.2632277978971)"><path d="M-0.9 1.52 C-0.51 394.27, -0.57 1966.03, 0.04 2358.65 M3.81 -0.12 C4.03 391.53, -1.95 1960.62, -2.18 2353.95" stroke="#000000" stroke-width="4" fill="none"></path></g></g><mask></mask><g stroke-linecap="round"><g transform="translate(9114.529500301407 11204.939740696918) rotate(0 1513.0277100651383 -11.327168513640913)"><path d="M-1.44 0.15 C503.11 -3.36, 2522.83 -18.75, 3027.49 -22.8 M2.98 -2.24 C507.2 -5.21, 2522.04 -16.44, 3025.65 -19.79" stroke="#000000" stroke-width="4" fill="none"></path></g></g><mask></mask><g stroke-linecap="round"><g transform="translate(9122.893868579526 11333.1970807134) rotate(0 1513.9138601868272 -11.574644471511306)"><path d="M-0.87 0.5 C503.99 -3.87, 2523.76 -19.84, 3028.7 -23.65 M3.85 -1.7 C508.55 -4.56, 2523.48 -18.11, 3027.5 -21.1" stroke="#000000" stroke-width="4" fill="none"></path></g></g><mask></mask><g stroke-linecap="round"><g transform="translate(9105.37321001837 11462.638626796574) rotate(0 1513.755675648009 -12.138304979570307)"><path d="M1.19 1.05 C506.32 -2.67, 2524.62 -17.44, 3029.12 -20.79 M-1.61 -0.86 C503.52 -5.59, 2523.36 -21.61, 3028.16 -25.32" stroke="#000000" stroke-width="4" fill="none"></path></g></g><mask></mask><g stroke-linecap="round"><g transform="translate(9174.090319670166 11127.781629496167) rotate(0 339.94729982129957 -437.39928552064373)"><path d="M2.31 0.9 C114.62 -143.96, 562.21 -725.16, 674.59 -871.07 M0.12 -1.07 C113.22 -146.66, 567.35 -730.4, 679.77 -875.7" stroke="#000000" stroke-width="4" fill="none"></path></g><g transform="translate(9174.090319670166 11127.781629496167) rotate(0 339.94729982129957 -437.39928552064373)"><path d="M677.95 -873.59 L674.51 -862 L662.59 -865.75 L677.15 -873.44" stroke="none" stroke-width="0" fill="#000000" fill-rule="evenodd"></path><path d="M680.74 -878.11 C679.22 -871.14, 674.45 -864.26, 678.01 -862.19 M678.99 -876.9 C679.21 -870.7, 679.23 -869.57, 677.78 -859.66 M678.15 -859.14 C674.9 -865.24, 671.7 -865.24, 663.92 -869.93 M675.78 -861.74 C671.88 -863.62, 669.28 -866.56, 666.05 -869.95 M663.48 -868.25 C670.94 -868.76, 672.59 -875.07, 678.5 -873.79 M665.63 -869.55 C671.22 -869.34, 673.46 -873.59, 679.01 -876.7 M679.77 -875.7 C679.77 -875.7, 679.77 -875.7, 679.77 -875.7 M679.77 -875.7 C679.77 -875.7, 679.77 -875.7, 679.77 -875.7" stroke="#000000" stroke-width="4" fill="none"></path></g></g><mask></mask><g transform="translate(10057.208755008385 10078.068952757705) rotate(0 175.13143920898438 165.09926449328077)"><text x="0" y="0" font-family="Virgil, Segoe UI Emoji" font-size="264.15882318924906px" fill="#000000" text-anchor="start" style="white-space: pre;" direction="ltr" dominant-baseline="text-before-edge">1px</text></g><g transform="translate(13430.515561564232 10530.18958182993) rotate(0 206.96151733398438 165.09926449328066)"><text x="0" y="0" font-family="Virgil, Segoe UI Emoji" font-size="264.15882318924906px" fill="#000000" text-anchor="start" style="white-space: pre;" direction="ltr" dominant-baseline="text-before-edge">svg</text></g><g stroke-linecap="round" transform="translate(12751.122688605432 11046.562100333926) rotate(0 1516.093058165121 1210.1671581547878)"><path d="M32 0 M32 0 C1210.98 5.75, 2390.99 3.37, 3000.19 0 M32 0 C629.83 0.11, 1229.94 0.5, 3000.19 0 M3000.19 0 C3023.62 0.48, 3030.15 11.88, 3032.19 32 M3000.19 0 C3020.15 -4.27, 3028.06 6.64, 3032.19 32 M3032.19 32 C3038.29 905.35, 3037.63 1775.11, 3032.19 2388.33 M3032.19 32 C3045.56 554.73, 3045.24 1075.49, 3032.19 2388.33 M3032.19 2388.33 C3028.53 2408.18, 3021.09 2420.8, 3000.19 2420.33 M3032.19 2388.33 C3035.31 2413.61, 3023.21 2418.61, 3000.19 2420.33 M3000.19 2420.33 C2227.12 2414.72, 1455.46 2413.88, 32 2420.33 M3000.19 2420.33 C1860.51 2423.9, 721.19 2424.64, 32 2420.33 M32 2420.33 C12.28 2424.2, -2.92 2405.95, 0 2388.33 M32 2420.33 C13.96 2416.88, 3.97 2407.92, 0 2388.33 M0 2388.33 C-1.72 1867.54, -1.73 1345.21, 0 32 M0 2388.33 C19.44 1580.24, 19.56 772.33, 0 32 M0 32 C-1.17 11.08, 12.4 0.92, 32 0 M0 32 C-1.79 8.31, 9.67 2.9, 32 0" stroke="#000000" stroke-width="4" fill="none"></path></g><g stroke-linecap="round" transform="translate(13735.905936052077 11521.018101216716) rotate(0 674.1199903872484 625.3883968206768)"><path d="M676.47 -0.86 C865.32 173.11, 1052.47 345.8, 1348.37 626.09 M675.55 0.12 C912.54 222.45, 1155.58 447.51, 1347.67 626.48 M1349.05 625.54 C1140.87 824.65, 932.18 1016.51, 675.41 1251.43 M1347.45 626.29 C1175.6 786.78, 1002.46 946.78, 675.76 1250.35 M676.33 1249.35 C478.65 1062.15, 277.7 875.78, -1.41 625.79 M674.2 1250.45 C475.28 1065.91, 279 882.63, 0.3 625.72 M1.42 625.9 C268.17 384.81, 533.09 135.71, 675.33 1.42 M0.75 625.83 C177.89 468.7, 351.14 308.16, 674.29 0.3" stroke="#000000" stroke-width="4" fill="none"></path></g><g stroke-linecap="round"><g transform="translate(14415.44066843497 11495.298541477785) rotate(0 55.697271072815056 -524.7335900580466)"><path d="M2.2 2.02 C20.31 -172.87, 88.38 -871.85, 106.18 -1046.92 M-0.05 0.65 C19.16 -173.9, 93.5 -877.11, 111.44 -1051.49" stroke="#000000" stroke-width="4" fill="none"></path></g><g transform="translate(14415.44066843497 11495.298541477785) rotate(0 55.697271072815056 -524.7335900580466)"><path d="M110.01 -1055.34 L113.9 -1039.52 L103.92 -1041.73 L109.34 -1052.88" stroke="none" stroke-width="0" fill="#000000" fill-rule="evenodd"></path><path d="M113.61 -1053.75 C113.59 -1047.79, 113.04 -1043.2, 118.59 -1037.32 M112.74 -1050.75 C113.85 -1046.33, 114.56 -1041.24, 116.6 -1037.15 M114.11 -1039.79 C111.89 -1037.07, 108.94 -1037.49, 101.55 -1038.03 M116.04 -1038.24 C112.26 -1036.73, 110.32 -1037.37, 103.27 -1039.01 M103.32 -1041.46 C105.9 -1040.82, 107.35 -1045.37, 110.84 -1051.8 M102.35 -1037.87 C106.59 -1042.74, 110.19 -1046.83, 110.98 -1051.79 M111.44 -1051.49 C111.44 -1051.49, 111.44 -1051.49, 111.44 -1051.49 M111.44 -1051.49 C111.44 -1051.49, 111.44 -1051.49, 111.44 -1051.49" stroke="#000000" stroke-width="4" fill="none"></path></g></g><mask></mask><g transform="translate(14618.634629766351 10218.848991461771) rotate(0 634.4882202148438 165.09926449328077)"><text x="0" y="0" font-family="Virgil, Segoe UI Emoji" font-size="264.15882318924906px" fill="#000000" text-anchor="start" style="white-space: pre;" direction="ltr" dominant-baseline="text-before-edge">posición ()</text></g></svg>